<?xml version="1.0" standalone="no"?>
<!DOCTYPE svg PUBLIC "-//W3C//DTD SVG 1.1//EN" "http://www.w3.org/Graphics/SVG/1.1/DTD/svg11.dtd" >
<svg xmlns="http://www.w3.org/2000/svg" xmlns:xlink="http://www.w3.org/1999/xlink" version="1.1">
<metadata></metadata>
<defs>
<font id="pantonheavy" horiz-adv-x="1140" >
<font-face units-per-em="2048" ascent="1638" descent="-410" />
<missing-glyph horiz-adv-x="323" />
<glyph unicode="&#xfb01;" horiz-adv-x="1288" d="M31 801v182q0 46 18 64t64 18h45v4q0 447 497 447h482q47 0 65.5 -18.5t18.5 -65.5v-179q0 -47 -18.5 -65.5t-65.5 -18.5h-437q-92 0 -92 -96v-8h531q46 0 64 -18t18 -64v-901q0 -46 -18 -64t-64 -18h-287q-46 0 -64 18t-18 64v637h-162v-637q0 -46 -18.5 -64t-65.5 -18 h-282q-47 0 -65.5 18t-18.5 64v637h-45q-46 0 -64 18t-18 64z" />
<glyph unicode="&#xfb02;" horiz-adv-x="1310" d="M31 801v182q0 46 18 64t64 18h45v4q0 447 497 447h502q47 0 65.5 -18.5t18.5 -65.5v-1350q0 -46 -18 -64t-64 -18h-287q-46 0 -63.5 18t-17.5 64v1087h-91q-92 0 -92 -96v-8h49q46 0 64 -18t18 -64v-182q0 -46 -18 -64t-64 -18h-49v-637q0 -46 -18.5 -64t-65.5 -18h-282 q-47 0 -65.5 18t-18.5 64v637h-45q-46 0 -64 18t-18 64z" />
<glyph horiz-adv-x="0" />
<glyph horiz-adv-x="682" />
<glyph unicode=" "  horiz-adv-x="323" />
<glyph unicode="&#x09;" horiz-adv-x="323" />
<glyph unicode="&#xa0;" horiz-adv-x="323" />
<glyph unicode="!" horiz-adv-x="620" d="M61 150v104q0 95 36 130.5t132 35.5h160q96 0 132 -35.5t36 -130.5v-104q0 -95 -36 -130.5t-132 -35.5h-160q-96 0 -132 35.5t-36 130.5zM82 1434q-1 44 17.5 61.5t64.5 17.5h295q46 0 64.5 -17.5t17.5 -61.5l-37 -854q-2 -47 -18.5 -64.5t-61.5 -17.5h-227 q-45 0 -61.5 17.5t-18.5 64.5z" />
<glyph unicode="&#x22;" horiz-adv-x="892" d="M68 981v401q0 46 13.5 59t59.5 13h226q47 0 63 -14t10 -58l-53 -401q-6 -45 -22.5 -56.5t-67.5 -11.5h-156q-47 0 -60 11.5t-13 56.5zM481 981v401q0 45 14 58.5t60 13.5h225q47 0 63.5 -14t10.5 -58l-53 -401q-6 -45 -22.5 -56.5t-67.5 -11.5h-156q-47 0 -60.5 11.5 t-13.5 56.5z" />
<glyph unicode="#" horiz-adv-x="1632" d="M43 309l66 207q12 43 36 59.5t72 16.5h98l58 190h-105q-46 0 -60 18t-1 62l65 207q13 43 36.5 58.5t70.5 15.5h102l45 153q12 44 35.5 63t67.5 19h233q45 0 58.5 -18.5t1.5 -63.5l-45 -153h155l45 153q14 45 37 63.5t68 18.5h233q44 0 57.5 -19t0.5 -63l-46 -153h103 q46 0 58.5 -17t0.5 -61l-61 -209q-12 -41 -37 -57.5t-72 -16.5h-100l-57 -190h106q46 0 60.5 -18t1.5 -62l-68 -207q-12 -42 -36.5 -59t-72.5 -17h-100l-43 -147q-12 -45 -35 -63.5t-67 -18.5h-234q-45 0 -58 18.5t-1 63.5l43 147h-156l-43 -147q-14 -45 -36.5 -63.5 t-67.5 -18.5h-234q-44 0 -57 19t0 63l43 147h-105q-44 0 -57.5 18t-1.5 62zM711 592h155l58 190h-156z" />
<glyph unicode="$" horiz-adv-x="1310" d="M50.5 382q12.5 25 55.5 40l236 84q43 19 70 11.5t51 -48.5q24 -40 64.5 -58t117.5 -18q83 0 120.5 14t37.5 52q0 34 -40.5 52t-119.5 30q-173 29 -187 32q-228 49 -321 171q-78 101 -78 262q0 166 98 266.5t287 134.5v59q0 45 18 62.5t64 17.5h267q46 0 63.5 -17 t17.5 -63v-57q131 -23 216.5 -80t134.5 -155q21 -42 9.5 -66t-56.5 -43l-252 -111q-41 -18 -62.5 -10t-44.5 51q-25 48 -58.5 66t-101.5 18q-73 0 -104 -16.5t-31 -48.5q0 -17 9.5 -30t23.5 -21t39.5 -15.5t48 -11.5t59.5 -10q171 -26 236 -44q229 -63 298 -235 q32 -80 32 -186q0 -170 -102 -273t-294 -137v-57q0 -46 -17.5 -64t-63.5 -18h-267q-46 0 -64 18t-18 64v51q-158 23 -253 88t-136 180q-15 44 -2.5 69z" />
<glyph unicode="%" horiz-adv-x="1959" d="M43 993v160q0 156 98.5 244t280.5 88t279.5 -88t97.5 -244v-160q0 -154 -97.5 -240.5t-279.5 -86.5q-183 0 -281 86.5t-98 240.5zM265.5 27.5q-12.5 27.5 13.5 62.5l946 1290q35 49 63.5 61.5t102.5 12.5h258q44 0 56 -26t-13 -58l-944 -1290q-38 -53 -68 -66.5 t-109 -13.5h-247q-46 0 -58.5 27.5zM352 1018q0 -60 70 -60q67 0 67 60v112q0 60 -67 60q-70 0 -70 -60v-112zM1161 299v160q0 156 98.5 244t280.5 88t279.5 -88t97.5 -244v-160q0 -155 -97 -241.5t-280 -86.5t-281 86.5t-98 241.5zM1473 324q0 -60 69 -60q68 0 68 60v112 q0 60 -68 60q-69 0 -69 -60v-112z" />
<glyph unicode="&#x26;" horiz-adv-x="1449" d="M20 428q0 250 240 387q-78 111 -78 250q0 83 28.5 158t82.5 134t140.5 93.5t193.5 34.5q181 0 304.5 -114t123.5 -284q0 -223 -189 -348l-20 -12l86 -94l84 84q53 53 106 0l181 -174q23 -22 22 -44.5t-29 -49.5l-100 -101l248 -268q30 -31 19 -55.5t-56 -24.5h-326 q-44 0 -68 9t-50 38l-41 43q-96 -70 -191.5 -95.5t-210.5 -25.5q-227 0 -363.5 121.5t-136.5 337.5zM436 428q0 -46 30 -74t81 -28q62 0 119 43l-158 172q-72 -38 -72 -113zM569 1098q0 -54 39 -109l15 8q59 41 59 101q0 59 -57 59q-26 0 -41 -15.5t-15 -43.5z" />
<glyph unicode="'" horiz-adv-x="479" d="M68 981v401q0 46 13.5 59t59.5 13h226q47 0 63 -14t10 -58l-53 -401q-6 -45 -22.5 -56.5t-67.5 -11.5h-156q-47 0 -60 11.5t-13 56.5z" />
<glyph unicode="(" horiz-adv-x="677" d="M70 258v940q0 221 80 356t241 209q42 17 65 5t46 -58l131 -268q19 -42 9 -63.5t-54 -47.5q-46 -26 -64 -63t-18 -103v-874q0 -66 18 -103t64 -63q44 -26 54 -47.5t-9 -63.5l-131 -268q-23 -46 -46 -58t-65 5q-161 74 -241 209t-80 356z" />
<glyph unicode=")" horiz-adv-x="675" d="M34 77.5q10 21.5 54 47.5q46 26 64 63t18 103v874q0 66 -18 103t-64 63q-44 26 -54 47.5t9 63.5l131 268q23 46 46 58t65 -5q161 -74 241 -209t80 -356v-940q0 -221 -80 -356t-241 -209q-42 -17 -65 -5t-46 58l-131 268q-19 42 -9 63.5z" />
<glyph unicode="*" horiz-adv-x="704" d="M46.5 1103q-11.5 20 0.5 52l27 76q22 69 86 35l114 -60l-22 127q-12 68 57 68h80q39 0 52.5 -15.5t7.5 -52.5l-21 -127l115 60q36 18 54 9.5t30 -44.5l28 -78q11 -33 -0.5 -51.5t-50.5 -24.5l-127 -20l90 -90q24 -23 24 -46.5t-28 -43.5l-67 -46q-59 -41 -90 21l-56 109 l-57 -111q-14 -30 -35.5 -38t-48.5 11l-72 54q-31 23 -31.5 43.5t27.5 46.5l90 90l-127 20q-38 6 -49.5 26z" />
<glyph unicode="+" horiz-adv-x="1155" d="M45 567v207q0 51 19.5 70.5t70.5 19.5h248v248q0 51 19.5 70.5t70.5 19.5h207q51 0 70.5 -19.5t19.5 -70.5v-248h250q51 0 70.5 -19.5t19.5 -70.5v-207q0 -51 -19.5 -70.5t-70.5 -19.5h-250v-250q0 -51 -19.5 -70.5t-70.5 -19.5h-207q-51 0 -70.5 19.5t-19.5 70.5v250 h-248q-51 0 -70.5 19.5t-19.5 70.5z" />
<glyph unicode="," horiz-adv-x="567" d="M16 -188l64 516q8 62 32.5 88t80.5 26h243q125 0 84 -114l-168 -498q-15 -44 -41.5 -62t-77.5 -18h-155q-40 0 -53 13t-9 49z" />
<glyph unicode="-" horiz-adv-x="815" d="M72 432v219q0 51 19.5 70.5t70.5 19.5h491q51 0 70.5 -19.5t19.5 -70.5v-219q0 -51 -19.5 -70.5t-70.5 -19.5h-491q-51 0 -70.5 19.5t-19.5 70.5z" />
<glyph unicode="." horiz-adv-x="565" d="M55 150v124q0 95 36.5 131.5t131.5 36.5h119q95 0 131.5 -36.5t36.5 -131.5v-124q0 -94 -36.5 -130t-131.5 -36h-119q-95 0 -131.5 36t-36.5 130z" />
<glyph unicode="/" horiz-adv-x="1064" d="M38 -105q-12 18 3 58l530 1425q17 44 40 60t69 16h293q43 0 55 -18t-2 -58l-530 -1425q-17 -44 -40 -60t-69 -16h-293q-44 0 -56 18z" />
<glyph unicode="0" horiz-adv-x="1341" d="M66 524v408q0 256 160 404.5t446 148.5q285 0 444.5 -148.5t159.5 -404.5v-408q0 -258 -159.5 -406.5t-444.5 -148.5q-287 0 -446.5 148.5t-159.5 406.5zM541 496q0 -55 34.5 -85t96.5 -30q61 0 95 30t34 85v462q0 55 -34 85t-95 30q-62 0 -96.5 -30t-34.5 -85v-462z" />
<glyph unicode="1" horiz-adv-x="931" d="M-1.5 1121.5q9.5 25.5 54.5 52.5l428 245q37 22 61 28.5t66 6.5h127q51 0 70.5 -19.5t19.5 -70.5v-1274q0 -51 -19.5 -70.5t-70.5 -19.5h-295q-51 0 -70.5 19.5t-19.5 70.5v752l-80 -45q-53 -28 -82.5 -20t-54.5 54l-123 220q-21 45 -11.5 70.5z" />
<glyph unicode="2" horiz-adv-x="1269" d="M51 90v168q0 57 13.5 108t32 88.5t53.5 74t63.5 59.5t77 50.5t78 42t82.5 38.5q45 20 65.5 29.5t58.5 28.5t56 31.5t43.5 33.5t37 40.5t20.5 45t9 53.5q0 92 -96 92q-44 0 -73.5 -26t-61.5 -93q-24 -51 -45.5 -62t-69.5 5l-274 102q-47 18 -59.5 42.5t4.5 72.5 q148 371 593 371q260 0 411 -136.5t151 -347.5q0 -96 -19 -171t-51 -127t-82.5 -92.5t-104.5 -65.5t-126 -47q-49 -15 -134.5 -34.5t-123 -33.5t-37.5 -33v-8h557q51 0 70.5 -19.5t19.5 -70.5v-209q0 -51 -19.5 -70.5t-70.5 -19.5h-959q-51 0 -70.5 19.5t-19.5 70.5z" />
<glyph unicode="3" horiz-adv-x="1292" d="M43 413.5q13 26.5 61 43.5l248 88q47 17 71.5 4.5t43.5 -62.5q44 -118 160 -118q59 0 88.5 20t29.5 66q0 48 -24 66t-74 18h-90q-51 0 -70.5 19.5t-19.5 70.5v211q0 51 19.5 70.5t70.5 19.5h61q101 0 101 78q0 42 -23.5 59.5t-79.5 17.5q-59 0 -91.5 -26.5t-57.5 -91.5 q-19 -50 -43.5 -62.5t-71.5 4.5l-248 88q-48 17 -61 43t4 72q137 373 641 373q247 0 379.5 -116t132.5 -312q0 -92 -43 -167.5t-121 -127.5q205 -112 205 -346q0 -223 -138 -335t-423 -112q-496 0 -633 371q-17 47 -4 73.5z" />
<glyph unicode="4" horiz-adv-x="1368" d="M23 362v164q0 64 9.5 96t45.5 74l600 695q33 38 61 50.5t82 12.5h250q51 0 70.5 -19.5t19.5 -70.5v-743h92q51 0 70.5 -20t19.5 -71v-168q0 -51 -19.5 -70.5t-70.5 -19.5h-92v-182q0 -51 -19.5 -70.5t-70.5 -19.5h-272q-51 0 -70.5 19.5t-19.5 70.5v182h-596 q-51 0 -70.5 19.5t-19.5 70.5zM487 621h222v262z" />
<glyph unicode="5" horiz-adv-x="1273" d="M32.5 379.5q12.5 24.5 59.5 42.5l277 106q40 17 64.5 7t45.5 -58q19 -44 52 -66t96 -22q59 0 85.5 28t26.5 85q0 56 -30 81t-103 25h-426q-56 0 -77 24.5t-15 80.5l64 616q8 72 38 99.5t105 27.5h780q51 0 70.5 -19.5t19.5 -70.5v-229q0 -51 -19.5 -70.5t-70.5 -19.5 h-481l-8 -76h88q146 0 255.5 -38t174 -106.5t96 -157.5t31.5 -198q0 -224 -152.5 -363t-423.5 -139q-257 0 -403 80t-215 258q-17 48 -4.5 72.5z" />
<glyph unicode="6" horiz-adv-x="1349" d="M66 528v398q0 275 157.5 417t458.5 142q239 0 383 -78t209 -248q18 -48 5.5 -72t-60.5 -43l-242 -92q-23 -9 -39 -10t-30 9.5t-22.5 22.5t-25.5 40q-20 33 -58 46t-110 13q-86 0 -119.5 -31.5t-33.5 -113.5v-13q71 9 166 9q310 0 451.5 -113t141.5 -358 q0 -238 -161.5 -361t-454.5 -123q-303 0 -459.5 142t-156.5 417zM539 453q0 -45 30 -69t113 -24q86 0 114.5 22.5t28.5 66.5q0 45 -30.5 64t-112.5 19q-84 0 -143 -12v-67z" />
<glyph unicode="7" horiz-adv-x="1191" d="M29 1135v229q0 51 19.5 70.5t70.5 19.5h962q51 0 70.5 -19.5t19.5 -70.5v-174q0 -43 -4.5 -66t-21.5 -59l-475 -985q-25 -51 -55 -65.5t-113 -14.5h-289q-47 0 -56.5 24.5t11.5 65.5l450 954h-499q-51 0 -70.5 20t-19.5 71z" />
<glyph unicode="8" horiz-adv-x="1347" d="M49 397q0 110 55 195.5t138 138.5q-144 99 -144 305q0 212 153.5 330.5t420.5 118.5q281 0 429 -110t148 -312q0 -171 -125 -287q174 -119 174 -340q0 -105 -35.5 -189t-108.5 -147t-195 -97t-287 -34q-322 0 -472.5 112.5t-150.5 315.5zM520 440q0 -42 38 -65t110 -23 q65 0 101 23.5t36 58.5q0 39 -36.5 57.5t-184.5 67.5q-64 -64 -64 -119zM580 1024q0 -34 25 -55t81 -39l37 -12q55 52 55 106q0 72 -102 72q-96 0 -96 -72z" />
<glyph unicode="9" horiz-adv-x="1349" d="M51 1001q0 238 161.5 361t455.5 123q303 0 459.5 -142t156.5 -417v-398q0 -275 -157.5 -417t-458.5 -142q-239 0 -383 78t-209 248q-18 48 -5.5 72t60.5 43l242 92q23 9 39 10t29.5 -10t22 -22.5t25.5 -39.5q20 -33 58 -46t110 -13q86 0 120 31.5t34 113.5v13 q-71 -9 -166 -9q-310 0 -452 113t-142 358zM524 1006q0 -45 31 -64.5t113 -19.5q84 0 143 12v67q0 45 -30 69t-113 24q-86 0 -115 -22t-29 -66z" />
<glyph unicode=":" horiz-adv-x="606" d="M76 150v124q0 95 36.5 131.5t131.5 36.5h118q95 0 131.5 -36.5t36.5 -131.5v-124q0 -94 -36.5 -130t-131.5 -36h-118q-95 0 -131.5 36t-36.5 130zM76 866v125q0 95 36.5 131.5t131.5 36.5h118q95 0 131.5 -36.5t36.5 -131.5v-125q0 -94 -36.5 -130t-131.5 -36h-118 q-95 0 -131.5 36t-36.5 130z" />
<glyph unicode=";" horiz-adv-x="604" d="M23 -188l63 516q8 62 32.5 88t80.5 26h243q125 0 84 -114l-168 -498q-15 -44 -41 -62t-77 -18h-156q-40 0 -52.5 12.5t-8.5 49.5zM90 866v125q0 95 36.5 131.5t131.5 36.5h119q95 0 131.5 -36.5t36.5 -131.5v-125q0 -94 -36.5 -130t-131.5 -36h-119q-95 0 -131.5 36 t-36.5 130z" />
<glyph unicode="&#x3c;" horiz-adv-x="1030" d="M43 563v209q0 44 15.5 67t56.5 46l735 399q52 26 73 9.5t21 -76.5v-256q0 -49 -8 -76t-23.5 -41t-50.5 -31l-284 -135v-6l282 -137q52 -24 68 -49.5t16 -96.5v-270q0 -60 -21 -77t-73 9l-735 402q-42 23 -57 44.5t-15 65.5z" />
<glyph unicode="=" horiz-adv-x="1236" d="M86 313v219q0 51 19.5 71t70.5 20h885q51 0 70.5 -20t19.5 -71v-219q0 -51 -19.5 -70.5t-70.5 -19.5h-885q-51 0 -70.5 19.5t-19.5 70.5zM86 805v219q0 51 19.5 70.5t70.5 19.5h885q51 0 70.5 -19.5t19.5 -70.5v-219q0 -51 -19.5 -70.5t-70.5 -19.5h-885 q-51 0 -70.5 19.5t-19.5 70.5z" />
<glyph unicode="&#x3e;" horiz-adv-x="1030" d="M86 119v270q0 71 16 96.5t68 49.5l283 133v6l-285 139q-35 17 -50.5 31t-23.5 41t-8 76v256q0 60 21 76.5t73 -9.5l735 -399q41 -23 56.5 -46t15.5 -67v-209q0 -44 -15 -65.5t-57 -44.5l-735 -402q-52 -26 -73 -9t-21 77z" />
<glyph unicode="?" horiz-adv-x="1243" d="M40 1069.5q-13 25.5 5 73.5q149 370 594 370q264 0 412.5 -115t148.5 -311q0 -69 -20 -126.5t-49.5 -95t-72 -72t-79.5 -54.5t-81 -45t-67 -43q-57 -44 -57 -94q0 -49 -19 -67.5t-67 -18.5h-246q-48 0 -67 18.5t-19 67.5q0 94 24.5 163t57 104t80.5 63q23 14 59.5 32 t59.5 30t47 31t35.5 45.5t11.5 61.5q0 36 -23.5 58t-68.5 22q-58 0 -93.5 -38.5t-80.5 -139.5q-22 -50 -44.5 -62t-70.5 5l-250 94q-47 18 -60 43.5zM322 150v104q0 95 36 130.5t131 35.5h160q96 0 132 -35.5t36 -130.5v-104q0 -95 -36 -130.5t-132 -35.5h-160 q-95 0 -131 35.5t-36 130.5z" />
<glyph unicode="@" horiz-adv-x="1857" d="M47 524v152q0 183 56.5 332t165.5 255t276 164t379 58t379 -58t275.5 -164t165 -255t56.5 -332v-152q0 -213 -109.5 -333.5t-277.5 -120.5q-60 0 -103 18t-85 57q-149 -53 -359 -53q-206 0 -306.5 95.5t-100.5 275.5v272q0 180 100.5 275.5t306.5 95.5q241 0 424 -72 q43 -18 54.5 -36.5t11.5 -65.5v-547q0 -26 12 -36.5t37 -10.5q42 0 70 42.5t28 139.5v160q0 256 -148.5 399.5t-430.5 143.5t-431 -143.5t-149 -399.5v-160q0 -255 148 -390.5t432 -135.5q94 0 229 13t217 26q53 9 67.5 -1t14.5 -55v-116q0 -45 -14.5 -62t-59.5 -26 q-215 -43 -454 -43q-425 0 -651 210.5t-226 583.5zM774 469q0 -51 29 -73.5t96 -22.5q39 0 75 2t52 4l16 2v414q0 17 -16 22q-54 8 -127 8q-67 0 -96 -22.5t-29 -73.5v-260z" />
<glyph unicode="A" horiz-adv-x="1441" d="M-2 22q-5 10 -5 24q0 18 9 42l457 1292q14 44 38 59t72 15h303q47 0 71.5 -15t39.5 -57l459 -1294q7 -21 7 -37q0 -51 -71 -51h-286q-77 0 -111 21.5t-45 72.5l-29 105h-385l-28 -105q-14 -52 -45 -73t-103 -21h-287q-49 0 -61 22zM625 571h182l-45 164q-16 58 -25.5 129 t-11.5 112l-2 42h-21v-24q0 -137 -32 -257z" />
<glyph unicode="B" horiz-adv-x="1355" d="M82 90v1276q0 51 19.5 70.5t70.5 19.5h623q223 0 347 -101t124 -288q0 -102 -36.5 -173t-117.5 -126v-10q215 -94 215 -350q0 -194 -145.5 -301t-378.5 -107h-631q-51 0 -70.5 19.5t-19.5 70.5zM557 365h164q57 0 83.5 21.5t26.5 74.5q0 50 -26.5 71t-83.5 21h-164v-188z M557 920h123q54 0 79 19t25 67q0 47 -25.5 67.5t-78.5 20.5h-123v-174z" />
<glyph unicode="C" horiz-adv-x="1347" d="M51 563v328q0 278 171.5 436t482.5 158q483 0 620 -373q10 -26 10 -46q0 -15 -6 -26q-13 -26 -61 -43l-279 -98q-27 -8 -47 -8q-15 0 -26 5q-24 11 -42 60q-25 64 -61.5 90.5t-107.5 26.5q-104 0 -141.5 -41t-37.5 -139v-332q0 -98 37.5 -139t141.5 -41q69 0 109.5 28.5 t62.5 88.5q19 50 43 62q10 5 24 5q20 0 47 -10l277 -98q48 -17 61 -43q6 -11 6 -27q0 -20 -10 -47q-137 -371 -620 -371q-311 0 -482.5 158t-171.5 436z" />
<glyph unicode="D" horiz-adv-x="1392" d="M82 90v1274q0 51 19.5 70.5t70.5 19.5h518q312 0 482.5 -158t170.5 -436v-264q0 -278 -170.5 -437t-482.5 -159h-518q-51 0 -70.5 19.5t-19.5 70.5zM557 412h109q112 0 157 47t45 149v240q0 101 -45 148.5t-157 47.5h-109v-632z" />
<glyph unicode="E" horiz-adv-x="1212" d="M82 90v1274q0 51 19.5 70.5t70.5 19.5h893q51 0 70.5 -19.5t19.5 -70.5v-229q0 -51 -19.5 -71t-70.5 -20h-508v-106h393q51 0 70.5 -19.5t19.5 -70.5v-230q0 -51 -19.5 -70.5t-70.5 -19.5h-393v-116h522q51 0 70.5 -19.5t19.5 -70.5v-232q0 -51 -19.5 -70.5t-70.5 -19.5 h-907q-51 0 -70.5 19.5t-19.5 70.5z" />
<glyph unicode="F" horiz-adv-x="1189" d="M82 90v1274q0 51 19.5 70.5t70.5 19.5h893q51 0 70.5 -19.5t19.5 -70.5v-229q0 -51 -19.5 -71t-70.5 -20h-508v-186h393q51 0 70.5 -19.5t19.5 -70.5v-229q0 -51 -19.5 -70.5t-70.5 -19.5h-393v-359q0 -51 -19.5 -70.5t-70.5 -19.5h-295q-51 0 -70.5 19.5t-19.5 70.5z " />
<glyph unicode="G" horiz-adv-x="1402" d="M51 563v328q0 278 171.5 436t482.5 158q483 0 620 -373q10 -26 10 -46q0 -15 -6 -26q-13 -26 -61 -43l-279 -98q-27 -8 -47 -8q-15 0 -26 5q-24 11 -42 60q-25 64 -61.5 90.5t-107.5 26.5q-104 0 -141.5 -41t-37.5 -139v-332q0 -98 37.5 -139t141.5 -41q83 0 127.5 23 t44.5 77v8h-146q-51 0 -70.5 20t-19.5 71v178q0 51 19.5 70.5t70.5 19.5h537q51 0 70.5 -19.5t19.5 -70.5v-262q0 -113 -43.5 -209t-125 -167t-206 -111t-278.5 -40q-311 0 -482.5 158t-171.5 436z" />
<glyph unicode="H" horiz-adv-x="1417" d="M82 90v1276q0 51 19.5 70.5t70.5 19.5h295q51 0 70.5 -19.5t19.5 -70.5v-424h303v424q0 51 19.5 70.5t70.5 19.5h295q51 0 70.5 -19.5t19.5 -70.5v-1276q0 -51 -19.5 -70.5t-70.5 -19.5h-295q-51 0 -70.5 19.5t-19.5 70.5v442h-303v-442q0 -51 -19.5 -70.5t-70.5 -19.5 h-295q-51 0 -70.5 19.5t-19.5 70.5z" />
<glyph unicode="I" horiz-adv-x="638" d="M82 82v1290q0 46 18 64t64 18h311q46 0 64 -18t18 -64v-1290q0 -46 -18 -64t-64 -18h-311q-46 0 -64 18t-18 64z" />
<glyph unicode="J" horiz-adv-x="1210" d="M-4 400q13 25 61 42l267 97q32 12 54 12q12 0 22 -4q26 -11 46 -58q25 -57 52 -83.5t69 -26.5q97 0 97 135v854q0 50 18.5 69t69.5 19h299q49 0 68.5 -19t19.5 -69v-852q0 -261 -150 -404t-436 -143q-420 0 -553 359q-10 26 -10 46q0 14 6 26z" />
<glyph unicode="K" horiz-adv-x="1368" d="M82 90v1274q0 51 19.5 70.5t70.5 19.5h295q51 0 70.5 -19.5t19.5 -70.5v-424l23 -2h14l229 434q28 54 55 68t109 14h293q50 0 65 -26q6 -10 6 -22q0 -21 -16 -50l-323 -615q38 -47 67 -104l277 -524q16 -28 16 -52q0 -15 -7 -28q-17 -33 -71 -33h-276q-87 0 -125.5 18.5 t-67.5 77.5l-166 344q-13 27 -22 42t-26 29.5t-36 14.5h-18v-436q0 -51 -19.5 -70.5t-70.5 -19.5h-295q-51 0 -70.5 19.5t-19.5 70.5z" />
<glyph unicode="L" horiz-adv-x="1124" d="M82 90v1274q0 51 19.5 70.5t70.5 19.5h295q51 0 70.5 -19.5t19.5 -70.5v-952h457q51 0 70.5 -19.5t19.5 -70.5v-232q0 -51 -19.5 -70.5t-70.5 -19.5h-842q-51 0 -70.5 19.5t-19.5 70.5z" />
<glyph unicode="M" horiz-adv-x="1703" d="M82 86v1284q0 49 19.5 67.5t70.5 18.5h250q55 0 79.5 -12t47.5 -51l299 -637l301 635q23 41 45 53t74 12h264q51 0 70.5 -18.5t19.5 -67.5v-1284q0 -49 -19.5 -67.5t-70.5 -18.5h-291q-51 0 -70.5 18.5t-19.5 67.5v127q0 127 20.5 251.5t90.5 360.5h-25 q-90 -242 -115 -299l-88 -202q-14 -32 -35.5 -46t-64.5 -14h-180q-43 0 -65.5 13.5t-37.5 46.5l-92 202q-10 21 -36 95.5t-47 138.5l-21 65h-25q69 -266 87 -378.5t18 -235.5v-125q0 -49 -20 -67.5t-71 -18.5h-272q-51 0 -70.5 18.5t-19.5 67.5z" />
<glyph unicode="N" horiz-adv-x="1437" d="M82 90v1274q0 51 19.5 70.5t70.5 19.5h313q63 0 88 -41l267 -434q23 -38 36 -60.5t28 -55t24 -54.5t35.5 -87.5t50.5 -125.5h18q-84 273 -101.5 355t-17.5 227v186q0 51 20 70.5t71 19.5h262q51 0 70.5 -19.5t19.5 -70.5v-1274q0 -51 -19.5 -70.5t-70.5 -19.5h-293 q-33 0 -53 10t-35 33l-232 369q-47 76 -66 112.5t-46.5 112.5t-75.5 231h-16q54 -243 64.5 -329t10.5 -267v-182q0 -51 -19.5 -70.5t-70.5 -19.5h-262q-51 0 -70.5 19.5t-19.5 70.5z" />
<glyph unicode="O" horiz-adv-x="1409" d="M51 563v328q0 278 171 436t483 158t482.5 -158t170.5 -436v-328q0 -278 -170.5 -436t-482.5 -158t-483 158t-171 436zM526 537q0 -76 47 -116t132 -40t131.5 40t46.5 116v381q0 76 -46 115.5t-132 39.5t-132.5 -39.5t-46.5 -115.5v-381z" />
<glyph unicode="P" horiz-adv-x="1339" d="M82 90v1274q0 51 19.5 70.5t70.5 19.5h584q252 0 401.5 -139t149.5 -391q0 -249 -147.5 -386t-399.5 -137h-203v-311q0 -51 -19.5 -70.5t-70.5 -19.5h-295q-51 0 -70.5 19.5t-19.5 70.5zM557 811h141q55 0 87 32.5t32 84.5q0 51 -31.5 83.5t-87.5 32.5h-141v-233z" />
<glyph unicode="Q" horiz-adv-x="1433" d="M51 563v328q0 278 171 436t483 158t482.5 -158t170.5 -436v-328q0 -203 -92 -342l108 -129q30 -36 30 -62q0 -29 -40 -65l-190 -149q-35 -30 -62 -30h-4q-28 2 -59 40l-138 164q-110 -21 -206 -21q-312 0 -483 158t-171 436zM526 537q0 -76 47 -116t132 -40t131.5 40 t46.5 116v381q0 76 -46 115.5t-132 39.5t-132.5 -39.5t-46.5 -115.5v-381z" />
<glyph unicode="R" horiz-adv-x="1363" d="M82 90v1274q0 51 19.5 70.5t70.5 19.5h600q246 0 390.5 -134t144.5 -380q0 -145 -53 -252.5t-152 -171.5q38 -47 67 -104l158 -299q16 -29 16 -52q-1 -15 -7 -28q-16 -33 -70 -33h-277q-83 0 -130 27.5t-75 89.5l-112 245q-44 89 -105 89h-10v-361q0 -51 -19.5 -70.5 t-70.5 -19.5h-295q-51 0 -70.5 19.5t-19.5 70.5zM557 836h158q48 0 75 30.5t27 77.5q0 46 -26 73t-76 27h-158v-208z" />
<glyph unicode="S" horiz-adv-x="1339" d="M34 348q13 26 60 43l236 84q32 13 56 13q10 0 19 -2q29 -8 56 -52q44 -74 198 -74q86 0 129 15.5t43 56.5q0 21 -14 36.5t-45.5 26t-62 17t-82.5 14.5q-180 30 -255 54q-235 75 -302 262q-29 80 -29 184q0 209 168 334t463 125q234 0 378 -65t216 -210q14 -29 14 -50 q0 -12 -4 -22q-12 -26 -62 -46l-251 -107q-30 -13 -50 -13q-10 0 -17 3q-23 9 -48 55q-41 78 -176 78q-148 0 -148 -72q0 -13 4 -23t14.5 -18.5t20 -15t29 -12.5t33 -9.5t40.5 -8t43 -7t48 -6.5q66 -10 105.5 -17t106 -25.5t107.5 -39.5t92 -59.5t79.5 -86t48.5 -118 t20 -156.5q0 -116 -53.5 -206.5t-146.5 -146t-210.5 -84t-251.5 -28.5q-150 0 -272.5 31.5t-214.5 101.5t-129 172q-9 26 -9 46q0 17 6 28z" />
<glyph unicode="T" horiz-adv-x="1273" d="M20 1135v229q0 51 20 70.5t71 19.5h1052q51 0 70.5 -19.5t19.5 -70.5v-229q0 -51 -19.5 -71t-70.5 -20h-289v-954q0 -51 -19.5 -70.5t-70.5 -19.5h-295q-51 0 -70.5 19.5t-19.5 70.5v954h-288q-51 0 -71 20t-20 71z" />
<glyph unicode="U" horiz-adv-x="1421" d="M70 555v809q0 51 19.5 70.5t70.5 19.5h295q51 0 70.5 -19.5t19.5 -70.5v-838q0 -71 42 -109t124 -38t124 38t42 109v838q0 51 19.5 70.5t70.5 19.5h295q51 0 70.5 -19.5t19.5 -70.5v-809q0 -272 -165.5 -429t-475.5 -157t-475.5 157t-165.5 429z" />
<glyph unicode="V" horiz-adv-x="1443" d="M2 1366q-7 21 -7 37q0 51 71 51h307q77 0 110.5 -21.5t44.5 -72.5l154 -641q14 -58 23.5 -129t12.5 -112l3 -42h20q0 150 33 281l156 643q12 52 43 73t104 21h307q48 0 61 -22q6 -10 6 -24q0 -18 -9 -42l-436 -1292q-14 -44 -38.5 -59t-72.5 -15h-344q-47 0 -71.5 15 t-39.5 57z" />
<glyph unicode="W" horiz-adv-x="1964" d="M17 1433q12 21 59 21h307q60 0 85.5 -15t35.5 -63l61 -446q25 -179 25 -408h16q0 75 9.5 198.5t27.5 209.5l90 446q10 48 36.5 63t82.5 15h283q55 0 82.5 -15.5t35.5 -62.5l93 -446q23 -110 38 -408h17q6 247 26 408l60 446q9 47 35 62.5t86 15.5h282q47 0 59 -21 q6 -10 6 -25q0 -17 -7 -40l-326 -1292q-11 -45 -36 -60.5t-73 -15.5h-311q-48 0 -74 15.5t-36 56.5l-58 299q-39 206 -43 452h-18q-10 -240 -51 -454l-56 -293q-11 -45 -36.5 -60.5t-73.5 -15.5h-305q-48 0 -74.5 15t-36.5 57l-322 1296q-7 23 -7 40q0 15 6 25z" />
<glyph unicode="X" horiz-adv-x="1382" d="M-10 25q-4 8 -3 17q0 20 17 48l414 651l-393 629q-23 35 -11.5 59.5t54.5 24.5h301q86 0 118 -13t58 -61l141 -256l137 256q26 51 56 62.5t108 11.5h328q43 0 53.5 -24.5t-12.5 -59.5l-398 -629l420 -651q17 -26 17 -46q0 -10 -3 -18q-11 -26 -59 -26h-327 q-85 0 -116.5 13.5t-60.5 66.5l-143 268l-145 -268q-19 -35 -35 -50t-48 -22.5t-93 -7.5h-316q-47 0 -59 25z" />
<glyph unicode="Y" horiz-adv-x="1417" d="M-5 1428q11 26 58 26h297q85 0 116.5 -12.5t59.5 -65.5l185 -362l192 362q28 53 59.5 65.5t114.5 12.5h287q47 0 58 -26q3 -8 3 -18q0 -20 -16 -46l-463 -803v-471q0 -51 -19.5 -70.5t-70.5 -19.5h-295q-51 0 -70.5 19.5t-19.5 70.5v467l-463 807q-16 26 -16 46 q0 10 3 18z" />
<glyph unicode="Z" horiz-adv-x="1269" d="M41 90v129q0 47 29 90l501 735h-430q-51 0 -70.5 20t-19.5 71v229q0 51 19.5 70.5t70.5 19.5h985q51 0 71 -19.5t20 -70.5v-127q0 -49 -29 -92l-500 -733h449q51 0 70.5 -19.5t19.5 -70.5v-232q0 -51 -19.5 -70.5t-70.5 -19.5h-1006q-51 0 -70.5 19.5t-19.5 70.5z" />
<glyph unicode="[" horiz-adv-x="778" d="M88 -221v1892q0 51 15.5 66.5t66.5 15.5h504q51 0 65.5 -13.5t14.5 -64.5v-168q0 -50 -14 -63.5t-66 -13.5h-152v-1405h152q51 0 65.5 -13.5t14.5 -64.5v-170q0 -51 -14.5 -64.5t-65.5 -13.5h-504q-51 0 -66.5 14.5t-15.5 65.5z" />
<glyph unicode="\" horiz-adv-x="1069" d="M37 1436q12 18 55 18h293q46 0 69 -15t40 -59l534 -1427q15 -40 3 -58t-56 -18h-293q-46 0 -69 16t-40 60l-534 1427q-14 38 -2 56z" />
<glyph unicode="]" horiz-adv-x="778" d="M25 -53q0 51 14 64.5t65 13.5h152v1405h-152q-51 0 -65 13t-14 64v168q0 51 14 64.5t65 13.5h504q51 0 66.5 -15.5t15.5 -66.5v-1892q0 -51 -15.5 -65.5t-66.5 -14.5h-504q-51 0 -65 13.5t-14 64.5v170z" />
<glyph unicode="^" horiz-adv-x="1372" d="M44 1091q-12 26 26 70l379 426q39 43 68.5 57.5t84.5 14.5h168q59 0 85.5 -13.5t66.5 -58.5l381 -426q37 -46 25 -71t-71 -25h-278q-76 0 -109.5 13.5t-68.5 60.5l-115 151h-4l-121 -151q-37 -47 -73.5 -60.5t-112.5 -13.5h-260q-59 0 -71 26z" />
<glyph unicode="_" horiz-adv-x="1052" d="M16 -90q0 51 19.5 70.5t70.5 19.5h840q51 0 70.5 -19.5t19.5 -70.5v-219q0 -51 -19.5 -70.5t-70.5 -19.5h-840q-51 0 -70.5 19.5t-19.5 70.5v219z" />
<glyph unicode="`" horiz-adv-x="526" d="M0 1362l139 141q54 54 135 4l283 -174q26 -17 27.5 -33.5t-23.5 -44.5l-76 -84q-16 -19 -37.5 -20t-58.5 12l-379 117q-68 21 -10 82z" />
<glyph unicode="a" horiz-adv-x="1091" d="M33 311q0 104 28.5 170.5t94 106t158 54.5t235.5 15h41v60q0 59 -72 59q-14 0 -26 -3.5t-19.5 -6.5t-17.5 -12.5t-13 -12t-13 -16t-11 -14.5q-14 -17 -25.5 -25t-36 -8.5t-59.5 14.5l-180 74q-43 20 -55 45q-4 9 -4 20q0 21 14 52q113 213 473 213q137 0 234.5 -32 t153 -93.5t80.5 -141.5t25 -186v-485q0 -59 -16 -83.5t-64 -45.5q-136 -60 -419 -60q-150 0 -248 19.5t-155.5 63t-80 105t-22.5 154.5zM465 313q0 -30 16 -46.5t56 -16.5q31 0 47 2q6 0 6 6v123h-49q-76 0 -76 -68z" />
<glyph unicode="b" horiz-adv-x="1128" d="M66 166v1266q0 46 17.5 63.5t63.5 17.5h287q46 0 64 -17.5t18 -63.5v-340q58 4 90 4q241 0 360 -118t119 -339v-188q0 -236 -130 -359t-388 -123q-131 0 -242.5 21t-177.5 51q-53 26 -67 48t-14 77zM516 367q0 -7 4 -9q12 -6 45 -6q37 0 53.5 15t16.5 47v245q0 56 -64 56 q-13 0 -26.5 -2t-20.5 -4l-8 -2v-340z" />
<glyph unicode="c" horiz-adv-x="1075" d="M43 438v191q0 222 130.5 344.5t395.5 122.5q189 0 308 -81.5t165 -215.5q10 -27 10 -46q0 -15 -6 -27q-13 -26 -59 -40l-248 -82q-28 -8 -48 -8q-15 0 -25 4q-24 12 -43 59q-17 41 -33 54.5t-43 13.5q-26 0 -40.5 -20.5t-14.5 -53.5v-241q0 -33 15 -52.5t40 -19.5 q29 0 44.5 11.5t31.5 51.5q19 47 43 58q10 5 25 5q20 0 48 -9l256 -76q47 -13 61 -41q6 -11 6 -27q0 -22 -11 -51q-124 -293 -504 -293q-256 0 -380 122t-124 347z" />
<glyph unicode="d" horiz-adv-x="1128" d="M43 428v188q0 234 122.5 357t358.5 123q16 0 45 -1t43 -1v340q0 46 18 64t64 18h287q46 0 64 -18t18 -64v-1268q0 -54 -17 -76.5t-71 -44.5q-189 -76 -438 -76t-371.5 118.5t-122.5 340.5zM494 408q0 -56 63 -56l49 4q6 2 6 11v342q-24 6 -49 6q-69 0 -69 -62v-245z" />
<glyph unicode="e" horiz-adv-x="1136" d="M41 461v145q0 238 137 364t395 126q134 0 237.5 -36.5t167 -101t96 -147.5t32.5 -180v-101q0 -54 -27 -82t-90 -28h-497v-27q0 -104 86 -104q37 0 65 12.5t38.5 23t27.5 31.5q14 18 24 25.5t32 7t56 -15.5l178 -74q43 -20 55 -45q4 -9 4 -20q0 -21 -14 -52 q-113 -213 -473 -213q-139 0 -243 37t-165.5 105t-91.5 155t-30 195zM492 692h163v19q0 47 -18 68.5t-64 21.5q-45 0 -63 -21.5t-18 -68.5v-19z" />
<glyph unicode="f" horiz-adv-x="808" d="M33 801v182q0 46 18 64t64 18h45v4q0 447 497 447h48q47 0 65 -18.5t18 -65.5v-179q0 -47 -18 -65.5t-65 -18.5q-95 0 -95 -96v-8h97q46 0 63.5 -18t17.5 -64v-182q0 -46 -17.5 -64t-63.5 -18h-97v-637q0 -46 -18.5 -64t-65.5 -18h-282q-47 0 -65.5 18t-18.5 64v637h-45 q-46 0 -64 18t-18 64z" />
<glyph unicode="g" horiz-adv-x="1126" d="M41 485v129q0 236 130 359t388 123q131 0 242.5 -21t177.5 -51q53 -24 67.5 -47t14.5 -78v-879q0 -108 -28.5 -195t-88 -154.5t-161 -104.5t-238.5 -37q-177 0 -289.5 51t-183.5 162q-17 30 -17 51q0 10 4 19q12 25 58 47l225 108q27 13 48 13q33 0 54 -29q3 -3 17.5 -22 t21.5 -25.5t24 -14.5t36 -8q37 0 52 20t15 58v74q-58 -4 -90 -4q-242 0 -360.5 117.5t-118.5 338.5zM492 465q0 -55 63 -55q13 0 26.5 2t20.5 4l8 2v282q0 6 -6 9q-8 4 -43 4q-37 0 -53 -15t-16 -47v-186z" />
<glyph unicode="h" horiz-adv-x="1144" d="M68 82v1352q0 46 18 64t64 18h286q46 0 64 -18t18 -64v-340q29 2 90 2q241 0 360 -118.5t119 -340.5v-555q0 -46 -17.5 -64t-63.5 -18h-287q-46 0 -64 18t-18 64v534q0 42 -17 59t-57 17q-31 0 -45 -2v-608q0 -46 -18 -64t-64 -18h-286q-46 0 -64 18t-18 64z" />
<glyph unicode="i" horiz-adv-x="585" d="M55 1335v23q0 90 34 124t124 34h160q90 0 123.5 -34t33.5 -124v-23q0 -90 -33.5 -123.5t-123.5 -33.5h-160q-91 0 -124.5 34t-33.5 123zM68 82v901q0 46 18 64t64 18h286q46 0 64 -18t18 -64v-901q0 -46 -18 -64t-64 -18h-286q-46 0 -64 18t-18 64z" />
<glyph unicode="j" horiz-adv-x="587" d="M-111 -168q0 47 18.5 65.5t65.5 18.5q95 0 95 96v971q0 46 18.5 64t65.5 18h282q47 0 65.5 -18t18.5 -64v-1008q0 -241 -134.5 -343.5t-410.5 -102.5q-47 0 -65.5 18.5t-18.5 65.5v219zM55 1335v23q0 90 34 124t124 34h160q90 0 123.5 -34t33.5 -124v-23 q0 -90 -33.5 -123.5t-123.5 -33.5h-160q-91 0 -124.5 34t-33.5 123z" />
<glyph unicode="k" horiz-adv-x="1165" d="M68 82v1352q0 46 17 64t62 18h289q44 0 62 -18t18 -64v-719h23h10l115 264q22 51 52 68.5t97 17.5h225q64 0 82 -30q8 -13 8 -29q0 -22 -14 -52l-190 -417l20 -39l184 -383q19 -36 19 -60q0 -15 -7 -26q-18 -29 -87 -29h-234q-78 0 -111.5 16.5t-50.5 67.5l-77 242 q-15 43 -58 43h-6v-287q0 -46 -18 -64t-62 -18h-289q-45 0 -62 18t-17 64z" />
<glyph unicode="l" horiz-adv-x="585" d="M68 82v1352q0 46 18 64t64 18h286q46 0 64 -18t18 -64v-1352q0 -46 -18 -64t-64 -18h-286q-46 0 -64 18t-18 64z" />
<glyph unicode="m" horiz-adv-x="1644" d="M63 82v807q0 54 17.5 79.5t71.5 47.5q199 80 436 80q151 0 252 -49q134 49 284 49q234 0 348.5 -118.5t114.5 -340.5v-555q0 -46 -18 -64t-64 -18h-286q-46 0 -64 18t-18 64v543q0 37 -12.5 52t-45.5 15q-18 0 -30 -2q2 -20 2 -63v-545q0 -46 -18 -64t-64 -18h-287 q-46 0 -64 18t-18 64v543q0 38 -12 52.5t-45 14.5h-21q-8 0 -8 -12v-598q0 -46 -18 -64t-64 -18h-287q-46 0 -64 18t-18 64z" />
<glyph unicode="n" d="M63 82v807q0 54 17.5 79.5t71.5 47.5q199 80 452 80q241 0 360 -118.5t119 -340.5v-555q0 -46 -18 -64t-64 -18h-286q-46 0 -64 18t-18 64v534q0 42 -17 59t-57 17q-27 0 -39 -2q-6 -2 -6 -8v-600q0 -46 -18 -64t-64 -18h-287q-46 0 -64 18t-18 64z" />
<glyph unicode="o" d="M43 434v197q0 220 135.5 342.5t390.5 122.5q258 0 393.5 -122.5t135.5 -342.5v-197q0 -220 -135.5 -342.5t-393.5 -122.5q-255 0 -390.5 122.5t-135.5 342.5zM492 416q0 -66 77 -66q80 0 80 66v233q0 68 -80 68q-77 0 -77 -68v-233z" />
<glyph unicode="p" horiz-adv-x="1128" d="M66 -367v1266q0 54 17 76.5t71 44.5q189 76 438 76q248 0 370.5 -118.5t122.5 -340.5v-188q0 -234 -122.5 -357t-358.5 -123q-16 0 -45 1t-43 1v-338q0 -46 -18 -64t-64 -18h-287q-46 0 -63.5 18t-17.5 64zM516 356q24 -6 49 -6q70 0 70 62v245q0 26 -16.5 41t-47.5 15 q-14 0 -25.5 -1.5t-16.5 -3.5l-5 -1q-8 -3 -8 -11v-340z" />
<glyph unicode="q" horiz-adv-x="1128" d="M43 426v188q0 236 130 359t388 123q131 0 242.5 -21t177.5 -51q53 -26 67.5 -48t14.5 -77v-1266q0 -46 -18 -64t-64 -18h-287q-46 0 -64 18t-18 64v340q-58 -4 -90 -4q-241 0 -360 118t-119 339zM494 406q0 -56 63 -56q13 0 26.5 2t20.5 4l8 2v338q0 10 -8 13 q-16 4 -41 4q-37 0 -53 -15t-16 -47v-245z" />
<glyph unicode="r" horiz-adv-x="749" d="M66 82v817q0 55 17.5 81.5t70.5 47.5q152 60 436 68h61q46 0 64 -18t18 -64v-219q0 -46 -18 -64t-64 -18h-80q-31 0 -45 -2q-10 0 -10 -13v-616q0 -46 -18 -64t-64 -18h-287q-46 0 -63.5 18t-17.5 64z" />
<glyph unicode="s" horiz-adv-x="1077" d="M41 213q-9 23 -9 42q0 48 60 69l199 71q36 13 59 12t32 -8t24 -24q17 -24 43 -37.5t79 -13.5q72 0 96.5 10t24.5 35q0 20 -11 29.5t-47 15t-116 8.5q-224 9 -329 83t-105 234q0 168 121 262.5t354 94.5q204 0 316.5 -54t175.5 -165q16 -26 16 -49q0 -10 -3 -18 q-10 -29 -58 -50l-189 -82q-21 -10 -36 -13.5t-26 0t-16.5 7.5t-15.5 14.5t-16 15.5q-49 39 -119 39q-67 0 -87 -8.5t-20 -30.5q0 -21 25.5 -30t114.5 -15q184 -13 287.5 -53t142.5 -103t39 -165q0 -172 -129 -269.5t-369 -97.5q-411 0 -508 244z" />
<glyph unicode="t" horiz-adv-x="823" d="M10 801v182q0 46 17.5 64t62.5 18h70v164q0 46 18 64t64 18h286q46 0 64 -18t18 -64v-164h99q44 0 61.5 -18t17.5 -64v-182q0 -46 -17.5 -64t-61.5 -18h-99v-262q0 -97 95 -97q47 0 65 -18.5t18 -65.5v-219q0 -48 -18 -68t-65 -20q-277 0 -411 104.5t-134 346.5v299h-70 q-45 0 -62.5 18t-17.5 64z" />
<glyph unicode="u" d="M57 428v555q0 46 18 64t64 18h287q46 0 64 -18t18 -64v-534q0 -42 17 -59t57 -17q16 0 32 2q13 3 13 16v592q0 46 18 64t64 18h286q46 0 64 -18t18 -64v-807q0 -55 -17.5 -80t-70.5 -47q-199 -80 -452 -80q-241 0 -360.5 119t-119.5 340z" />
<glyph unicode="v" horiz-adv-x="1161" d="M14 1046q14 18 72 19h266q64 0 88.5 -16t36.5 -66l74 -313q11 -45 16.5 -115t5.5 -117v-47h21v14q0 165 22 265l68 311q11 54 31 69t86 15h280q59 -1 73 -19q6 -8 5 -22q0 -20 -10 -53l-303 -899q-17 -41 -41 -56.5t-70 -15.5h-321q-46 0 -71 15.5t-42 56.5l-283 899 q-9 32 -9 52q-1 15 5 23z" />
<glyph unicode="w" horiz-adv-x="1640" d="M14 1046q14 20 72 19h262q73 0 96.5 -15t30.5 -67l27 -195q7 -50 12 -139t6 -153l2 -64h19q8 243 26 356l31 193q6 53 32.5 68.5t102.5 15.5h182q74 0 100.5 -15.5t33.5 -66.5l32 -195q8 -50 14.5 -139t9.5 -153l3 -64h18q7 243 21 356l24 193q6 53 30 68.5t99 15.5h254 q58 1 72 -19q6 -9 6 -24q0 -20 -10 -51l-227 -899q-12 -40 -38 -56t-73 -16h-280q-50 0 -78 16t-35 56l-27 145q-11 60 -21 144t-14 138l-4 54h-14q-18 -203 -47 -336l-31 -145q-9 -41 -35.5 -56.5t-74.5 -15.5h-258q-48 0 -75.5 16t-37.5 56l-234 899q-10 31 -10 51 q0 15 6 24z" />
<glyph unicode="x" horiz-adv-x="1183" d="M0 23q-3 6 -3 14q0 22 26 59l294 451l-280 422q-22 32 -22 54q0 42 85 42h262q70 0 99.5 -13t52.5 -57l82 -164l80 164q24 48 48.5 59t92.5 11h273q78 0 78 -40q0 -22 -23 -56l-273 -420l291 -453q25 -37 25 -59q0 -9 -4 -15q-12 -22 -80 -22h-268q-73 0 -99 11t-49 59 l-96 200l-94 -200q-22 -47 -50 -58.5t-98 -11.5h-266q-72 0 -84 23z" />
<glyph unicode="y" horiz-adv-x="1144" d="M57 489v494q0 46 18 64t64 18h287q46 0 64 -18t18 -64v-473q0 -42 17 -59t57 -17q31 0 45 2v547q0 46 18 64t64 18h286q46 0 64 -18t18 -64v-963q0 -108 -28.5 -195t-88 -154.5t-161 -104.5t-238.5 -37q-177 0 -289.5 51t-183.5 162q-17 30 -17 51q0 10 4 19q12 25 58 47 l225 108q23 11 39.5 14t29.5 -3t20.5 -13t19.5 -22q14 -20 22.5 -30.5t27.5 -21t42 -10.5q38 0 53 20t15 58v74q-29 -2 -90 -2q-241 0 -360.5 118.5t-119.5 339.5z" />
<glyph unicode="z" horiz-adv-x="1030" d="M45 82v197q0 35 6.5 49.5t28.5 36.5l326 327h-269q-45 0 -62.5 17.5t-17.5 62.5v211q0 46 17.5 64t62.5 18h758q44 0 62 -18t18 -64v-197q0 -36 -10.5 -54.5t-40.5 -47.5l-338 -311h319q46 0 64 -18t18 -62v-211q0 -46 -18 -64t-64 -18h-778q-46 0 -64 18t-18 64z" />
<glyph unicode="{" horiz-adv-x="909" d="M0 592v254q0 44 15 63t53 19h12q133 0 133 178v342q0 161 73 233t249 72h264q44 0 62 -18t18 -62v-219q0 -44 -18 -62t-62 -18h-101q-23 0 -38 -14.5t-15 -36.5v-313q0 -190 -162 -289q162 -68 162 -291v-301q0 -22 14.5 -36.5t36.5 -14.5h103q44 0 62 -18t18 -62v-219 q0 -44 -18 -62t-62 -18h-258q-181 0 -254.5 71t-73.5 232v332q0 178 -133 178h-12q-36 0 -52 19t-16 61z" />
<glyph unicode="|" horiz-adv-x="612" d="M88 -221v1894q0 44 18 62t64 18h274q45 0 62.5 -17.5t17.5 -62.5v-1894q0 -45 -17.5 -62.5t-62.5 -17.5h-274q-46 0 -64 18t-18 62z" />
<glyph unicode="}" horiz-adv-x="909" d="M31 -2q0 44 18 62t62 18h102q22 0 36.5 14.5t14.5 36.5v301q0 223 162 291q-162 99 -162 289v313q0 22 -15 36.5t-38 14.5h-100q-44 0 -62 18t-18 62v219q0 44 18 62t62 18h264q175 0 248 -72t73 -233v-342q0 -178 133 -178h13q37 0 52 -19t15 -63v-254q0 -42 -15.5 -61 t-51.5 -19h-13q-133 0 -133 -178v-332q0 -162 -73 -232.5t-254 -70.5h-258q-44 0 -62 18t-18 62v219z" />
<glyph unicode="~" horiz-adv-x="1189" d="M41.5 710.5q-0.5 28.5 36.5 63.5q119 109 280 109q74 0 138 -18.5t116 -37t97 -18.5q65 0 118 43q39 31 60 30t57 -34l166 -154q36 -35 36.5 -63.5t-36.5 -63.5q-118 -108 -281 -108q-74 0 -137.5 17.5t-115.5 35.5t-97 18q-68 0 -119 -41q-41 -31 -60.5 -29.5 t-55.5 34.5l-166 153q-36 35 -36.5 63.5z" />
<glyph unicode="&#xa1;" horiz-adv-x="608" d="M55 809v104q0 95 36 130.5t132 35.5h160q96 0 132 -35.5t36 -130.5v-104q0 -95 -36 -130.5t-132 -35.5h-160q-96 0 -132 35.5t-36 130.5zM76 -371l35 854q2 47 18 64.5t61 17.5h228q45 0 61.5 -17.5t18.5 -64.5l37 -854q1 -44 -17.5 -62t-64.5 -18h-295q-46 0 -64.5 18 t-17.5 62z" />
<glyph unicode="&#xa2;" horiz-adv-x="1126" d="M63 438v191q0 174 81 288t245 156v92q0 46 18 64t64 18h225q46 0 64 -18t18 -64v-96q211 -63 285 -270q17 -47 4 -72.5t-59 -40.5l-248 -82q-49 -15 -73.5 -3.5t-43.5 58.5q-17 41 -33 54.5t-43 13.5q-26 0 -40.5 -20.5t-14.5 -53.5v-241q0 -33 15 -52.5t40 -19.5 q29 0 44.5 11.5t31.5 51.5q19 47 43.5 58t73.5 -4l256 -76q48 -14 61.5 -41.5t-6.5 -77.5q-87 -205 -293 -266v-84q0 -46 -18 -64t-64 -18h-225q-46 0 -64 18t-18 64v76q-326 77 -326 450z" />
<glyph unicode="&#xa3;" horiz-adv-x="1415" d="M57 90v209q0 37 8 58t33 26l15 4q31 9 53 33t27 53v14h-46q-51 0 -70.5 20t-19.5 71v145q0 51 19.5 70.5t70.5 19.5h58v188q0 212 150.5 348t410.5 136q446 0 594 -371q17 -48 4.5 -72.5t-59.5 -42.5l-275 -102q-48 -16 -69.5 -5t-45.5 62q-32 67 -61.5 93t-73.5 26 q-96 0 -96 -92v-168h299q51 0 70.5 -19.5t19.5 -70.5v-145q0 -51 -19.5 -71t-70.5 -20h-315v-6q-5 -48 -25 -74.5t-55 -48.5l6 -12q14 5 39 12t103.5 19t156.5 12h371q51 0 70.5 -19.5t19.5 -70.5v-209q0 -51 -19.5 -70.5t-70.5 -19.5h-1117q-51 0 -70.5 19.5t-19.5 70.5z " />
<glyph unicode="&#xa4;" horiz-adv-x="1359" d="M48 331.5q0 25.5 32 57.5l123 123q-33 91 -33 178t33 178l-123 123q-32 32 -32 57.5t32 57.5l184 184q32 32 57.5 32t57.5 -32l121 -121q94 33 182 33q87 0 178 -33l121 121q32 32 57.5 32t57.5 -32l184 -184q32 -32 32 -57.5t-32 -57.5l-119 -119q33 -94 33 -182 t-33 -182l119 -119q32 -32 32 -57.5t-32 -57.5l-184 -184q-32 -32 -57.5 -32t-57.5 32l-121 121q-91 -33 -178 -33q-88 0 -182 33l-121 -121q-32 -32 -57.5 -32t-57.5 32l-184 184q-32 32 -32 57.5zM545 690q3 -58 42 -96.5t95 -38.5t94.5 39t38.5 96q0 56 -38.5 94.5 t-94.5 38.5t-95 -38.5t-42 -94.5z" />
<glyph unicode="&#xa5;" horiz-adv-x="1499" d="M34.5 1427.5q11.5 26.5 59.5 26.5h297q85 0 116.5 -12.5t59.5 -65.5l185 -362l192 362q28 53 59.5 65.5t114.5 12.5h287q48 0 59.5 -26.5t-14.5 -63.5l-363 -539h97q44 0 62 -18t18 -62v-118q0 -44 -18 -62t-62 -18h-211v-60h211q44 0 62 -17.5t18 -61.5v-119 q0 -44 -18 -62t-62 -18h-197v-119q0 -51 -19.5 -70.5t-70.5 -19.5h-295q-51 0 -70.5 19.5t-19.5 70.5v119h-199q-44 0 -62 18t-18 62v119q0 44 18 61.5t62 17.5h213v60h-213q-44 0 -62 18t-18 62v118q0 44 18 62t62 18h97l-361 539q-26 37 -14.5 63.5z" />
<glyph unicode="&#xa6;" horiz-adv-x="620" d="M92 -219v770q0 44 18 62t64 18h275q45 0 62 -17.5t17 -62.5v-770q0 -45 -17 -62.5t-62 -17.5h-275q-46 0 -64 18t-18 62zM92 903v768q0 46 18 64t64 18h275q45 0 62 -18t17 -64v-768q0 -46 -16.5 -63t-62.5 -17h-275q-46 0 -64 17.5t-18 62.5z" />
<glyph unicode="&#xa7;" horiz-adv-x="1292" d="M55 -62q15 27 64 46l200 79q51 20 76 8t47 -65q24 -60 63 -80t124 -20q127 0 127 78q0 50 -109 73q-27 6 -80.5 15.5t-94 17t-96 23t-96.5 33t-84.5 48t-71 68t-45.5 92t-18 121.5q0 195 170 299q-139 90 -139 295q0 204 143.5 310t428.5 106q214 0 341 -67t197 -218 q24 -47 12.5 -75.5t-63.5 -51.5l-190 -82q-45 -21 -72 -11.5t-53 58.5q-29 57 -69.5 73.5t-104.5 16.5q-99 0 -99 -69q0 -30 34 -49.5t101 -36.5q17 -4 61.5 -14.5t69 -17t69 -19.5t71.5 -25t66 -31.5t63 -40.5t51 -51t42.5 -63t25.5 -77t10 -93q0 -170 -125 -271 q135 -93 135 -303q0 -193 -153.5 -305.5t-438.5 -112.5q-468 0 -588 314q-17 48 -2 75zM543 512q4 -54 37.5 -82t93.5 -39q20 -4 33 -4q53 60 45 127q-4 49 -34.5 78t-84.5 45q-6 1 -17.5 4t-17.5 4q-62 -66 -55 -133z" />
<glyph unicode="&#xa8;" horiz-adv-x="899" d="M43 1329v31q0 93 34.5 127.5t129.5 34.5h16q95 0 131.5 -35t36.5 -127v-31q0 -90 -36.5 -126t-131.5 -36h-16q-94 0 -129 35.5t-35 126.5zM498 1329v31q0 92 36.5 127t131.5 35h14q95 0 130.5 -35t35.5 -127v-31q0 -90 -36 -126t-130 -36h-14q-95 0 -131.5 36t-36.5 126z " />
<glyph unicode="&#xa9;" horiz-adv-x="1566" d="M45 717q0 347 195 542t544 195q347 0 541.5 -195t194.5 -542t-194.5 -542t-541.5 -195q-349 0 -544 195t-195 542zM256 717q0 -249 139.5 -389t388.5 -140q247 0 386 140t139 389t-138.5 387.5t-386.5 138.5q-249 0 -388.5 -138.5t-139.5 -387.5zM453 614v199 q0 143 86 226t243 83q125 0 209 -53t117 -158q15 -50 7.5 -68t-44.5 -30l-121 -41q-37 -12 -53 -3.5t-31 48.5q-20 55 -84 55q-75 0 -75 -57v-201q0 -59 75 -59q63 0 84 57q15 40 31 48.5t53 -3.5l121 -41q37 -12 44.5 -30t-7.5 -68q-33 -105 -117 -158t-209 -53 q-157 0 -243 82.5t-86 224.5z" />
<glyph unicode="&#xaa;" horiz-adv-x="722" d="M45 911q0 99 70 150t245 51h13v37q0 29 -21 29t-39 -21q-34 -35 -57 -39.5t-66 17.5l-88 43q-36 18 -43 38t17 54q84 112 284 112q306 0 306 -264v-264q0 -45 -17.5 -67t-68.5 -39q-95 -31 -224 -31q-176 0 -243.5 48.5t-67.5 145.5zM330 928q0 -18 6 -24.5t20 -6.5h15 q2 0 2 2v57h-17q-26 0 -26 -28z" />
<glyph unicode="&#xab;" horiz-adv-x="1366" d="M26.5 535.5q0.5 22.5 28.5 52.5l420 422q27 28 51 28.5t52 -28.5l131 -133q28 -29 28 -51t-28 -50l-234 -233l227 -226q28 -26 28 -49t-28 -51l-137 -139q-29 -28 -51 -27.5t-49 27.5l-410 407q-29 28 -28.5 50.5zM600.5 535.5q0.5 22.5 28.5 52.5l420 422 q27 28 50.5 28.5t51.5 -28.5l131 -133q28 -29 28 -51t-28 -50l-233 -233l227 -226q28 -26 28 -49t-28 -51l-137 -139q-29 -28 -51.5 -27.5t-49.5 27.5l-409 407q-29 28 -28.5 50.5z" />
<glyph unicode="&#xac;" horiz-adv-x="1232" d="M59 567v226q0 45 17.5 63t62.5 18h932q45 0 62.5 -18t17.5 -63v-469q0 -46 -18 -64t-62 -18h-287q-44 0 -61.5 18t-17.5 64v161h-566q-44 0 -62 18t-18 64z" />
<glyph unicode="&#xad;" horiz-adv-x="815" d="M72 432v219q0 51 19.5 70.5t70.5 19.5h491q51 0 70.5 -19.5t19.5 -70.5v-219q0 -51 -19.5 -70.5t-70.5 -19.5h-491q-51 0 -70.5 19.5t-19.5 70.5z" />
<glyph unicode="&#xae;" horiz-adv-x="923" d="M43 1057q0 197 111 307.5t309 110.5q196 0 306 -110.5t110 -307.5t-110 -307.5t-306 -110.5q-198 0 -309 110.5t-111 307.5zM154 1057q0 -148 81.5 -230t229.5 -82q145 0 226 82t81 230q0 146 -81 227.5t-226 81.5q-148 0 -229.5 -81.5t-81.5 -227.5zM291 885v338 q0 25 8 33t31 8h164q73 0 117 -42.5t44 -113.5q0 -88 -61 -127l51 -72q23 -32 12 -45.5t-59 -13.5h-41q-29 0 -40 6t-23 29l-39 71h-17v-71q0 -21 -7 -28t-28 -7h-73q-24 0 -31.5 6.5t-7.5 28.5zM434 1085h49q23 0 23 23q0 20 -23 20h-49v-43z" />
<glyph unicode="&#xaf;" horiz-adv-x="720" d="M29 1280v104q0 44 17 60t58 16h519q46 0 61.5 -15t15.5 -61v-104q0 -46 -15.5 -61t-61.5 -15h-519q-44 0 -59.5 15t-15.5 61z" />
<glyph unicode="&#xb0;" horiz-adv-x="886" d="M25 1137q0 182 119.5 299.5t299.5 117.5q179 0 298.5 -117.5t119.5 -299.5q0 -174 -122 -297t-296 -123q-178 0 -298.5 120.5t-120.5 299.5zM334 1135q0 -45 32 -77t78 -32t78.5 32.5t32.5 76.5q0 45 -33 78.5t-78 33.5t-77.5 -33.5t-32.5 -78.5z" />
<glyph unicode="&#xb1;" horiz-adv-x="1214" d="M74 803v207q0 51 19.5 70.5t70.5 19.5h248v104q0 51 19.5 70.5t70.5 19.5h207q51 0 70.5 -19.5t19.5 -70.5v-104h250q51 0 70.5 -19.5t19.5 -70.5v-207q0 -51 -19.5 -70.5t-70.5 -19.5h-250v-107q0 -51 -19.5 -70.5t-70.5 -19.5h-207q-51 0 -70.5 19.5t-19.5 70.5v107 h-248q-51 0 -70.5 19.5t-19.5 70.5zM76 158v221q0 51 19.5 70.5t70.5 19.5h885q51 0 70.5 -19.5t19.5 -70.5v-221q0 -51 -19.5 -70.5t-70.5 -19.5h-885q-51 0 -70.5 19.5t-19.5 70.5z" />
<glyph unicode="&#xb2;" horiz-adv-x="780" d="M41 1405.5q-9 26.5 12 75.5q40 97 123 145.5t230 48.5q156 0 244.5 -67t88.5 -189q0 -105 -39 -174.5t-139 -99.5l-76 -23q-30 -7 -30 -16v-2h194q44 0 60 -15.5t16 -56.5v-110q0 -39 -15 -54.5t-55 -15.5h-538q-43 0 -58.5 16t-15.5 54v73q0 116 43.5 174.5t161.5 96.5 l108 34q34 10 48 27.5t14 46.5q0 37 -35 37q-40 0 -64 -45q-13 -22 -20.5 -32t-19 -18t-26 -7t-36.5 10l-125 45q-42 15 -51 41.5z" />
<glyph unicode="&#xb3;" horiz-adv-x="792" d="M25.5 1083.5q5.5 23.5 35.5 34.5l107 39q51 16 69.5 7.5t38.5 -46.5q8 -16 20.5 -26.5t20 -15.5t26 -7t21 -2h21.5q61 0 61 31q0 23 -12 32t-49 9h-57q-28 0 -37.5 10t-9.5 41v131q0 29 10.5 41t42.5 12h41q59 0 59 39q0 37 -59 37q-36 0 -61.5 -14t-45.5 -54 q-10 -20 -20 -29.5t-30 -13.5t-46 11l-98 45q-51 21 -29 84q35 100 123 148t238 48q157 0 242 -63t85 -180q0 -55 -16.5 -93t-61.5 -73q103 -52 103 -185q0 -117 -89 -181t-263 -64q-158 0 -250.5 43.5t-124.5 150.5q-11 30 -5.5 53.5z" />
<glyph unicode="&#xb4;" horiz-adv-x="526" d="M-25.5 1299.5q1.5 16.5 27.5 33.5l283 174q81 50 135 -4l139 -141q58 -61 -10 -82l-379 -117q-37 -13 -58.5 -12t-37.5 20l-76 84q-25 28 -23.5 44.5z" />
<glyph unicode="&#xb5;" horiz-adv-x="1177" d="M82 -369v1352q0 46 18 64t64 18h287q46 0 63.5 -18t17.5 -64v-534q0 -42 17 -59t57 -17q15 0 29 2q16 3 16 16v592q0 46 18 64t64 18h287q46 0 64 -18t18 -64v-807q0 -59 -60 -113q-52 -43 -141.5 -68.5t-169.5 -25.5q-105 0 -199 31v-369q0 -46 -17.5 -64t-63.5 -18 h-287q-46 0 -64 18t-18 64z" />
<glyph unicode="&#xb6;" horiz-adv-x="1525" d="M39 928q0 235 145.5 380.5t378.5 145.5h778q46 0 64 -18t18 -64v-1472q0 -46 -18 -64t-64 -18h-223q-46 0 -64 18t-18 64v1144h-92v-1144q0 -46 -18 -64t-64 -18h-223q-46 0 -64 18t-18 64v503q-230 1 -374 147t-144 378z" />
<glyph unicode="&#xb7;" horiz-adv-x="593" d="M70 596v125q0 95 36.5 131.5t131.5 36.5h118q95 0 131.5 -36.5t36.5 -131.5v-125q0 -94 -36.5 -130t-131.5 -36h-118q-95 0 -131.5 36t-36.5 130z" />
<glyph unicode="&#xb8;" horiz-adv-x="514" d="M-6 -322q0 82 82 37q59 -32 117 -32q59 0 59 41q0 22 -19.5 31t-74.5 9h-41q-56 0 -27 66l76 170h217l-33 -88h21q89 -3 133 -61t35 -146q-6 -58 -35.5 -100t-76 -64.5t-98 -32.5t-112.5 -10q-85 0 -160 23q-36 11 -49.5 26t-13.5 37v94z" />
<glyph unicode="&#xb9;" horiz-adv-x="622" d="M-0.5 1456q6.5 26 43.5 47l227 131q45 25 99 25h82q68 0 85 -16t17 -74v-635q0 -45 -19 -63.5t-71 -18.5h-137q-52 0 -70 18.5t-18 63.5v360l-43 -24q-47 -25 -72 -18.5t-49 46.5l-60 99q-21 33 -14.5 59z" />
<glyph unicode="&#xba;" horiz-adv-x="708" d="M45 991v115q0 131 80 204.5t229 73.5q152 0 232 -73.5t80 -204.5v-115q0 -129 -80 -201.5t-232 -72.5q-149 0 -229 72.5t-80 201.5zM317 993q0 -30 37 -30t37 30v115q0 31 -37 31t-37 -31v-115z" />
<glyph unicode="&#xbb;" horiz-adv-x="1366" d="M56 826q0 22 28 51l131 133q28 29 51.5 28.5t50.5 -28.5l420 -422q28 -30 28.5 -52.5t-28.5 -50.5l-409 -407q-27 -27 -49.5 -27.5t-51.5 27.5l-137 139q-28 28 -28 51t28 49l227 226l-233 233q-28 28 -28 50zM629 826q0 22 28 51l131 133q28 29 52 28.5t51 -28.5 l420 -422q28 -30 28.5 -52.5t-28.5 -50.5l-410 -407q-27 -27 -49 -27.5t-51 27.5l-137 139q-28 28 -28 51t28 49l227 226l-234 233q-28 28 -28 50z" />
<glyph unicode="&#xbc;" horiz-adv-x="1826" d="M36.5 1245q6.5 26 43.5 47l227 131q45 25 99 25h81q68 0 85.5 -16t17.5 -74v-637q0 -45 -19 -63.5t-71 -18.5h-138q-52 0 -70 18.5t-18 63.5v362l-43 -24q-47 -25 -71.5 -18.5t-48.5 46.5l-60 99q-21 33 -14.5 59zM228 26q-13 26 16 64l950 1290q35 49 63.5 61.5 t102.5 12.5h176q48 0 59 -23.5t-16 -60.5l-948 -1290q-39 -53 -68 -66.5t-108 -13.5h-166q-48 0 -61 26zM997 205v65q0 40 5.5 58t25.5 41l326 383q31 36 55 46.5t80 10.5h106q52 0 72.5 -20t20.5 -68v-352h22q41 0 54.5 -13.5t13.5 -46.5v-112q0 -36 -13.5 -50t-54.5 -14 h-22v-61q0 -72 -66 -72h-162q-34 0 -48.5 17t-14.5 55v61h-324q-43 0 -59.5 17.5t-16.5 54.5zM1303 369h94v110z" />
<glyph unicode="&#xbd;" horiz-adv-x="1830" d="M36.5 1245q6.5 26 43.5 47l227 131q45 25 99 25h81q68 0 85.5 -16t17.5 -74v-637q0 -45 -19 -63.5t-71 -18.5h-138q-52 0 -70 18.5t-18 63.5v362l-43 -24q-47 -25 -71.5 -18.5t-48.5 46.5l-60 99q-21 33 -14.5 59zM197 26q-13 26 16 64l950 1290q35 49 63.5 61.5 t102.5 12.5h176q48 0 59 -23.5t-16 -60.5l-948 -1290q-39 -53 -68 -66.5t-108 -13.5h-166q-48 0 -61 26zM1075 555.5q-9 26.5 12 75.5q40 97 123 145.5t230 48.5q157 0 245.5 -67t88.5 -189q0 -103 -43.5 -176t-135.5 -98l-75 -23q-31 -7 -31 -16v-2h194q44 0 60 -15.5 t16 -56.5v-112q0 -39 -14.5 -54.5t-54.5 -15.5h-539q-43 0 -58.5 16t-15.5 54v75q0 116 43.5 174.5t161.5 96.5l109 35q34 10 47.5 27t13.5 46q0 37 -35 37q-39 0 -63 -45q-13 -22 -20.5 -32t-19.5 -18t-26.5 -7t-36.5 10l-125 45q-42 15 -51 41.5z" />
<glyph unicode="&#xbe;" horiz-adv-x="1851" d="M44 893.5q6 23.5 36 34.5l106 39q51 16 70 7.5t39 -46.5q10 -18 22.5 -29.5t28 -15.5t25 -5t26.5 -1h6q62 0 62 30q0 23 -12.5 32t-49.5 9h-57q-28 0 -37.5 10t-9.5 41v131q0 30 10.5 42t42.5 12h41q60 0 60 39q0 37 -60 37q-36 0 -61 -14t-45 -54q-10 -20 -20.5 -30 t-30 -14t-46.5 11l-98 45q-51 21 -29 84q35 100 123 148.5t238 48.5q157 0 242.5 -63.5t85.5 -180.5q0 -55 -16.5 -93t-61.5 -73q102 -71 102 -196q0 -236 -352 -236q-103 0 -175.5 17.5t-125 62t-74.5 117.5q-11 30 -5 53.5zM299 26q-13 26 16 64l951 1290q35 49 63.5 61.5 t102.5 12.5h176q48 0 59 -23.5t-16 -60.5l-949 -1290q-39 -53 -68 -66.5t-108 -13.5h-166q-48 0 -61 26zM1028 205v65q0 40 5.5 58t25.5 41l325 383q31 36 55.5 46.5t80.5 10.5h106q52 0 72 -20t20 -68v-352h23q41 0 54 -13.5t13 -46.5v-112q0 -36 -13 -50t-54 -14h-23v-61 q0 -72 -65 -72h-162q-35 0 -49.5 17t-14.5 55v61h-323q-43 0 -59.5 17.5t-16.5 54.5zM1333 369h94v110z" />
<glyph unicode="&#xbf;" horiz-adv-x="1234" d="M39 -29q0 69 20 126.5t49.5 95.5t72 72t79.5 54.5t81 45.5t67 43q57 44 57 94q0 49 19 67.5t67 18.5h246q48 0 67 -18.5t19 -67.5q0 -94 -24.5 -163t-57 -104t-80.5 -63q-23 -14 -59.5 -32t-59.5 -30.5t-47 -31.5t-35.5 -45.5t-11.5 -61.5q0 -36 23.5 -58t68.5 -22 q57 0 93 39t81 140q22 50 44.5 62t70.5 -5l250 -94q47 -18 60 -43.5t-5 -73.5q-149 -371 -594 -371q-264 0 -412.5 115t-148.5 311zM422 805v104q0 95 36 130.5t132 35.5h160q96 0 132 -35.5t36 -130.5v-104q0 -95 -36 -130.5t-132 -35.5h-160q-96 0 -132 35.5t-36 130.5z " />
<glyph unicode="&#xc0;" horiz-adv-x="1441" d="M-1.5 22q-12.5 22 3.5 66l457 1292q14 44 38 59t72 15h303q47 0 71.5 -15t39.5 -57l459 -1294q30 -88 -64 -88h-286q-77 0 -111 21.5t-45 72.5l-29 105h-385l-28 -105q-14 -52 -45 -73t-103 -21h-287q-48 0 -60.5 22zM431 1694.5q6 14.5 24 36.5l133 153q50 57 135 8 l289 -170q28 -15 29.5 -32t-23.5 -45l-72 -86q-16 -21 -37.5 -23t-58.5 10l-383 103q-25 8 -33.5 19.5t-2.5 26zM625 571h182l-45 164q-16 58 -25.5 129t-11.5 112l-2 42h-21q3 -150 -32 -281z" />
<glyph unicode="&#xc1;" horiz-adv-x="1441" d="M-1.5 22q-12.5 22 3.5 66l457 1292q14 44 38 59t72 15h303q47 0 71.5 -15t39.5 -57l459 -1294q30 -88 -64 -88h-286q-77 0 -111 21.5t-45 72.5l-29 105h-385l-28 -105q-14 -52 -45 -73t-103 -21h-287q-48 0 -60.5 22zM405.5 1686q1.5 16 28.5 34l289 164q81 46 135 -8 l133 -147q57 -60 -12 -82l-383 -103q-37 -12 -58.5 -10.5t-37.5 22.5l-72 86q-24 28 -22.5 44zM625 571h182l-45 164q-16 58 -25.5 129t-11.5 112l-2 42h-21q3 -150 -32 -281z" />
<glyph unicode="&#xc2;" horiz-adv-x="1441" d="M-1.5 22q-12.5 22 3.5 66l457 1292q14 44 38 59t72 15h303q47 0 71.5 -15t39.5 -57l459 -1294q30 -88 -64 -88h-286q-77 0 -111 21.5t-45 72.5l-29 105h-385l-28 -105q-14 -52 -45 -73t-103 -21h-287q-48 0 -60.5 22zM273 1580.5q6 17.5 24 35.5l221 219q41 39 68.5 49 t99.5 10h90q63 0 89.5 -10t66.5 -49l223 -219q18 -18 24 -35.5t-7 -30t-46 -12.5h-215q-73 0 -100.5 8t-48.5 37l-41 57l-45 -55q-24 -30 -52 -38.5t-96 -8.5h-202q-33 0 -46 12.5t-7 30zM625 571h182l-45 164q-16 58 -25.5 129t-11.5 112l-2 42h-21q3 -150 -32 -281z" />
<glyph unicode="&#xc3;" horiz-adv-x="1441" d="M-1.5 22q-12.5 22 3.5 66l457 1292q14 44 38 59t72 15h303q47 0 71.5 -15t39.5 -57l459 -1294q30 -88 -64 -88h-286q-77 0 -111 21.5t-45 72.5l-29 105h-385l-28 -105q-14 -52 -45 -73t-103 -21h-287q-48 0 -60.5 22zM326 1612q0 142 55.5 202t155.5 60q73 0 132.5 -17.5 t98.5 -35t61 -17.5q27 0 27 33q0 20 8.5 28.5t28.5 8.5h156q28 0 38.5 -11.5t10.5 -37.5q0 -143 -54 -202.5t-161 -59.5q-73 0 -131.5 17.5t-96 34.5t-59.5 17q-27 0 -27 -33q0 -20 -8.5 -28t-28.5 -8h-157q-27 0 -38 11.5t-11 37.5zM625 571h182l-45 164q-16 58 -25.5 129 t-11.5 112l-2 42h-21q3 -150 -32 -281z" />
<glyph unicode="&#xc4;" horiz-adv-x="1441" d="M-1.5 22q-12.5 22 3.5 66l457 1292q14 44 38 59t72 15h303q47 0 71.5 -15t39.5 -57l459 -1294q30 -88 -64 -88h-286q-77 0 -111 21.5t-45 72.5l-29 105h-385l-28 -105q-14 -52 -45 -73t-103 -21h-287q-48 0 -60.5 22zM319 1704v31q0 93 34.5 127t129.5 34h17 q96 0 132 -34.5t36 -126.5v-31q0 -90 -36.5 -126t-131.5 -36h-17q-94 0 -129 35.5t-35 126.5zM625 571h182l-45 164q-16 58 -25.5 129t-11.5 112l-2 42h-21q3 -150 -32 -281zM774 1704v31q0 92 36 126.5t132 34.5h14q95 0 130.5 -34.5t35.5 -126.5v-31q0 -90 -36 -126 t-130 -36h-14q-95 0 -131.5 36t-36.5 126z" />
<glyph unicode="&#xc5;" horiz-adv-x="1439" d="M-1.5 22q-12.5 22 3.5 66l473 1301q-72 66 -72 174q0 132 88.5 203t231.5 71q141 0 227 -73.5t86 -200.5q0 -109 -67 -170l473 -1305q30 -88 -64 -88h-286q-77 0 -111 21.5t-45 72.5l-29 105h-385l-28 -105q-14 -52 -45 -73t-103 -21h-287q-48 0 -60.5 22zM625 571h182 l-43 164q-16 58 -26 127.5t-12 109.5l-3 40h-21q1 -144 -34 -275zM641 1554q0 -33 22 -53t60 -20q34 0 54 18.5t20 54.5q0 35 -20.5 54.5t-53.5 19.5q-38 0 -60 -19.5t-22 -54.5z" />
<glyph unicode="&#xc6;" horiz-adv-x="1902" d="M-13 25q-16 25 9 63l860 1292q29 45 48.5 59.5t62.5 14.5h788q51 0 70.5 -19.5t19.5 -70.5v-229q0 -51 -19.5 -71t-70.5 -20h-356v-106h241q51 0 71 -19.5t20 -70.5v-230q0 -51 -20 -70.5t-71 -19.5h-241v-116h370q51 0 71 -19.5t20 -70.5v-232q0 -51 -20 -70.5 t-71 -19.5h-714q-51 0 -70.5 19.5t-19.5 70.5v78h-420l-60 -88q-22 -33 -36 -47t-45.5 -23.5t-86.5 -9.5h-264q-50 0 -66 25zM778 520h187v281z" />
<glyph unicode="&#xc7;" horiz-adv-x="1347" d="M51 563v328q0 278 171.5 436t482.5 158q483 0 620 -373q17 -46 4 -72t-61 -43l-279 -98q-49 -14 -73 -3t-42 60q-25 64 -61.5 90.5t-107.5 26.5q-104 0 -141.5 -41t-37.5 -139v-332q0 -98 37.5 -139t141.5 -41q69 0 109.5 28.5t62.5 88.5q19 50 43 62t71 -5l277 -98 q48 -17 61 -43.5t-4 -73.5q-121 -330 -520 -367l-23 -61h21q89 -3 133 -61t35 -146q-6 -58 -35.5 -100t-76 -64.5t-98 -32.5t-112.5 -10q-85 0 -160 23q-36 11 -49.5 26t-13.5 37v94q0 82 82 37q59 -32 117 -32q59 0 59 41q0 22 -19.5 31t-74.5 9h-41q-56 0 -27 66l66 145 q-257 29 -397 184t-140 404z" />
<glyph unicode="&#xc8;" horiz-adv-x="1212" d="M82 90v1274q0 51 19.5 70.5t70.5 19.5h893q51 0 70.5 -19.5t19.5 -70.5v-229q0 -51 -19.5 -71t-70.5 -20h-508v-106h393q51 0 70.5 -19.5t19.5 -70.5v-230q0 -51 -19.5 -70.5t-70.5 -19.5h-393v-116h522q51 0 70.5 -19.5t19.5 -70.5v-232q0 -51 -19.5 -70.5t-70.5 -19.5 h-907q-51 0 -70.5 19.5t-19.5 70.5zM326 1681q-2 20 26 50l133 153q50 57 136 8l288 -170q28 -15 29.5 -32t-23.5 -45l-71 -86q-16 -21 -37.5 -23t-58.5 10l-383 103q-37 12 -39 32z" />
<glyph unicode="&#xc9;" horiz-adv-x="1212" d="M82 90v1274q0 51 19.5 70.5t70.5 19.5h893q51 0 70.5 -19.5t19.5 -70.5v-229q0 -51 -19.5 -71t-70.5 -20h-508v-106h393q51 0 70.5 -19.5t19.5 -70.5v-230q0 -51 -19.5 -70.5t-70.5 -19.5h-393v-116h522q51 0 70.5 -19.5t19.5 -70.5v-232q0 -51 -19.5 -70.5t-70.5 -19.5 h-907q-51 0 -70.5 19.5t-19.5 70.5zM303.5 1686q1.5 16 28.5 34l289 164q81 46 135 -8l133 -147q57 -60 -12 -82l-383 -103q-37 -12 -59 -10t-38 22l-71 86q-24 28 -22.5 44z" />
<glyph unicode="&#xca;" horiz-adv-x="1212" d="M82 90v1274q0 51 19.5 70.5t70.5 19.5h893q51 0 70.5 -19.5t19.5 -70.5v-229q0 -51 -19.5 -71t-70.5 -20h-508v-106h393q51 0 70.5 -19.5t19.5 -70.5v-230q0 -51 -19.5 -70.5t-70.5 -19.5h-393v-116h522q51 0 70.5 -19.5t19.5 -70.5v-232q0 -51 -19.5 -70.5t-70.5 -19.5 h-907q-51 0 -70.5 19.5t-19.5 70.5zM171 1580.5q6 17.5 24 35.5l221 219q41 39 68.5 49t99.5 10h90q62 0 88.5 -10t66.5 -49l224 -219q18 -18 24 -35.5t-7 -30t-46 -12.5h-215q-73 0 -101 8t-49 37l-41 57l-45 -55q-24 -30 -51.5 -38.5t-95.5 -8.5h-203q-33 0 -45.5 12.5 t-6.5 30z" />
<glyph unicode="&#xcb;" horiz-adv-x="1212" d="M82 90v1274q0 51 19.5 70.5t70.5 19.5h893q51 0 70.5 -19.5t19.5 -70.5v-229q0 -51 -19.5 -71t-70.5 -20h-508v-106h393q51 0 70.5 -19.5t19.5 -70.5v-230q0 -51 -19.5 -70.5t-70.5 -19.5h-393v-116h522q51 0 70.5 -19.5t19.5 -70.5v-232q0 -51 -19.5 -70.5t-70.5 -19.5 h-907q-51 0 -70.5 19.5t-19.5 70.5zM217 1704v31q0 93 34.5 127t129.5 34h16q96 0 132 -34.5t36 -126.5v-31q0 -90 -36.5 -126t-131.5 -36h-16q-94 0 -129 35.5t-35 126.5zM672 1704v31q0 92 36 126.5t132 34.5h14q95 0 130.5 -34.5t35.5 -126.5v-31q0 -90 -36 -126 t-130 -36h-14q-95 0 -131.5 36t-36.5 126z" />
<glyph unicode="&#xcc;" horiz-adv-x="638" d="M27 1681q-2 20 26 50l133 153q50 57 136 8l288 -170q28 -15 29.5 -32t-23.5 -45l-71 -86q-16 -21 -37.5 -23t-58.5 10l-383 103q-37 12 -39 32zM82 82v1290q0 46 18 64t64 18h311q46 0 64 -18t18 -64v-1290q0 -46 -18 -64t-64 -18h-311q-46 0 -64 18t-18 64z" />
<glyph unicode="&#xcd;" horiz-adv-x="638" d="M4.5 1686q1.5 16 28.5 34l289 164q81 46 135 -8l133 -147q57 -60 -12 -82l-383 -103q-37 -12 -59 -10t-38 22l-71 86q-24 28 -22.5 44zM82 82v1290q0 46 18 64t64 18h311q46 0 64 -18t18 -64v-1290q0 -46 -18 -64t-64 -18h-311q-46 0 -64 18t-18 64z" />
<glyph unicode="&#xce;" horiz-adv-x="638" d="M-128 1580.5q6 17.5 24 35.5l221 219q41 39 68.5 49t99.5 10h90q62 0 88.5 -10t66.5 -49l224 -219q18 -18 24 -35.5t-7 -30t-46 -12.5h-215q-73 0 -101 8t-49 37l-41 57l-45 -55q-24 -30 -51.5 -38.5t-95.5 -8.5h-203q-33 0 -45.5 12.5t-6.5 30zM82 82v1290q0 46 18 64 t64 18h311q46 0 64 -18t18 -64v-1290q0 -46 -18 -64t-64 -18h-311q-46 0 -64 18t-18 64z" />
<glyph unicode="&#xcf;" horiz-adv-x="638" d="M-82 1704v31q0 93 34.5 127t129.5 34h16q96 0 132 -34.5t36 -126.5v-31q0 -90 -36.5 -126t-131.5 -36h-16q-94 0 -129 35.5t-35 126.5zM82 82v1290q0 46 18 64t64 18h311q46 0 64 -18t18 -64v-1290q0 -46 -18 -64t-64 -18h-311q-46 0 -64 18t-18 64zM373 1704v31 q0 92 36 126.5t132 34.5h14q95 0 130.5 -34.5t35.5 -126.5v-31q0 -90 -36 -126t-130 -36h-14q-95 0 -131.5 36t-36.5 126z" />
<glyph unicode="&#xd0;" horiz-adv-x="1470" d="M23 627v196q0 31 12.5 43.5t40.5 12.5h84v485q0 51 19.5 70.5t70.5 19.5h518q312 0 482.5 -158t170.5 -436v-264q0 -278 -170.5 -437t-482.5 -159h-518q-51 0 -70.5 19.5t-19.5 70.5v481h-84q-31 0 -42 11.5t-11 44.5zM635 412h108q112 0 157.5 47t45.5 149v240 q0 101 -45.5 148.5t-157.5 47.5h-108v-165h119q31 0 42 -12t11 -44v-196q0 -33 -11 -44.5t-42 -11.5h-119v-159z" />
<glyph unicode="&#xd1;" horiz-adv-x="1437" d="M82 90v1274q0 51 19.5 70.5t70.5 19.5h313q63 0 88 -41l267 -434q23 -38 36 -60.5t28 -55t24 -54.5t35.5 -87.5t50.5 -125.5h18q-84 273 -101.5 355t-17.5 227v186q0 51 20 70.5t71 19.5h262q51 0 70.5 -19.5t19.5 -70.5v-1274q0 -51 -19.5 -70.5t-70.5 -19.5h-293 q-33 0 -53 10t-35 33l-232 369q-47 76 -66 112.5t-46.5 112.5t-75.5 231h-16q54 -243 64.5 -329t10.5 -267v-182q0 -51 -19.5 -70.5t-70.5 -19.5h-262q-51 0 -70.5 19.5t-19.5 70.5zM332 1612q0 142 55.5 202t155.5 60q57 0 107.5 -11t79.5 -24t58 -24t48 -11q26 0 26 33 q0 20 8.5 28.5t28.5 8.5h156q28 0 38.5 -11.5t10.5 -37.5q0 -143 -54 -202.5t-161 -59.5q-73 0 -131.5 17.5t-96 34.5t-59.5 17q-27 0 -27 -33q0 -20 -8 -28t-28 -8h-158q-27 0 -38 11.5t-11 37.5z" />
<glyph unicode="&#xd2;" horiz-adv-x="1409" d="M51 563v328q0 278 171 436t483 158t482.5 -158t170.5 -436v-328q0 -278 -170.5 -436t-482.5 -158t-483 158t-171 436zM412 1701q-2 20 26 50l133 154q50 57 136 8l288 -170q28 -15 29.5 -32.5t-23.5 -45.5l-71 -86q-16 -21 -37.5 -22.5t-58.5 10.5l-383 102 q-37 12 -39 32zM526 537q0 -76 47 -116t132 -40t131.5 40t46.5 116v381q0 76 -46 115.5t-132 39.5t-132.5 -39.5t-46.5 -115.5v-381z" />
<glyph unicode="&#xd3;" horiz-adv-x="1409" d="M51 563v328q0 278 171 436t483 158t482.5 -158t170.5 -436v-328q0 -278 -170.5 -436t-482.5 -158t-483 158t-171 436zM389.5 1707q1.5 16 28.5 34l289 164q80 46 135 -9l133 -147q57 -60 -12 -82l-383 -102q-37 -12 -59 -10t-38 22l-71 86q-24 28 -22.5 44zM526 537 q0 -76 47 -116t132 -40t131.5 40t46.5 116v381q0 76 -46 115.5t-132 39.5t-132.5 -39.5t-46.5 -115.5v-381z" />
<glyph unicode="&#xd4;" horiz-adv-x="1409" d="M51 563v328q0 278 171 436t483 158t482.5 -158t170.5 -436v-328q0 -278 -170.5 -436t-482.5 -158t-483 158t-171 436zM257 1600.5q6 17.5 24 35.5l221 219q41 39 68.5 49.5t99.5 10.5h90q62 0 88 -10.5t67 -49.5l224 -219q18 -18 24 -35.5t-7 -29.5t-46 -12h-215 q-73 0 -101 8t-49 37l-40 57l-46 -55q-24 -30 -51.5 -38.5t-95.5 -8.5h-203q-33 0 -45.5 12t-6.5 29.5zM526 537q0 -76 47 -116t132 -40t131.5 40t46.5 116v381q0 76 -46 115.5t-132 39.5t-132.5 -39.5t-46.5 -115.5v-381z" />
<glyph unicode="&#xd5;" horiz-adv-x="1409" d="M51 563v328q0 278 171 436t483 158t482.5 -158t170.5 -436v-328q0 -278 -170.5 -436t-482.5 -158t-483 158t-171 436zM309 1632q0 142 55.5 202t155.5 60q57 0 107.5 -11t79.5 -23.5t58 -23.5t48 -11q27 0 27 33q0 20 8.5 28t28.5 8h155q28 0 38.5 -11.5t10.5 -37.5 q0 -143 -54 -202.5t-161 -59.5q-73 0 -131 17.5t-95.5 35t-59.5 17.5q-27 0 -27 -33q0 -20 -8.5 -28.5t-28.5 -8.5h-158q-27 0 -38 11.5t-11 37.5zM526 537q0 -76 47 -116t132 -40t131.5 40t46.5 116v381q0 76 -46 115.5t-132 39.5t-132.5 -39.5t-46.5 -115.5v-381z" />
<glyph unicode="&#xd6;" horiz-adv-x="1409" d="M51 563v328q0 278 171 436t483 158t482.5 -158t170.5 -436v-328q0 -278 -170.5 -436t-482.5 -158t-483 158t-171 436zM303 1724v31q0 93 34.5 127.5t129.5 34.5h16q95 0 131.5 -35t36.5 -127v-31q0 -90 -36.5 -125.5t-131.5 -35.5h-16q-94 0 -129 35.5t-35 125.5z M526 537q0 -76 47 -116t132 -40t131.5 40t46.5 116v381q0 76 -46 115.5t-132 39.5t-132.5 -39.5t-46.5 -115.5v-381zM758 1724v31q0 92 36.5 127t131.5 35h14q95 0 130.5 -35t35.5 -127v-31q0 -90 -36 -125.5t-130 -35.5h-14q-95 0 -131.5 35.5t-36.5 125.5z" />
<glyph unicode="&#xd7;" horiz-adv-x="1124" d="M43.5 934q0.5 26 34.5 59l155 156q34 34 60.5 34t60.5 -34l207 -207l209 209q35 34 61 34t60 -34l156 -156q34 -34 34 -60.5t-34 -60.5l-209 -208l209 -209q34 -34 34 -61.5t-34 -61.5l-156 -154q-34 -34 -60 -34t-61 34l-209 209l-207 -207q-34 -34 -60.5 -34t-60.5 34 l-155 156q-33 33 -33 59t33 62l207 207l-207 206q-35 36 -34.5 62z" />
<glyph unicode="&#xd8;" horiz-adv-x="1409" d="M24.5 -77q-4.5 15 8.5 32l143 219q-125 152 -125 389v328q0 278 171 436t483 158q180 0 313 -53l47 69q18 27 32.5 33t51.5 6h219q23 0 28.5 -12t-5.5 -31l-152 -225q119 -150 119 -381v-328q0 -278 -170.5 -436t-482.5 -158q-176 0 -304 49l-47 -69q-19 -28 -32.5 -34.5 t-55.5 -6.5h-213q-24 0 -28.5 15zM526 666l265 393q-35 14 -86 14q-86 0 -132.5 -39.5t-46.5 -115.5v-205v-47zM625 391q42 -10 80 -10q85 0 131.5 40t46.5 116v192v45z" />
<glyph unicode="&#xd9;" horiz-adv-x="1421" d="M70 555v809q0 51 19.5 70.5t70.5 19.5h295q51 0 70.5 -19.5t19.5 -70.5v-838q0 -71 42 -109t124 -38t124 38t42 109v838q0 51 19.5 70.5t70.5 19.5h295q51 0 70.5 -19.5t19.5 -70.5v-809q0 -272 -165.5 -429t-475.5 -157t-475.5 157t-165.5 429zM418 1681q-2 20 26 50 l134 153q50 57 135 8l288 -170q28 -15 30 -32t-23 -45l-72 -86q-16 -21 -37.5 -23t-58.5 10l-383 103q-37 12 -39 32z" />
<glyph unicode="&#xda;" horiz-adv-x="1421" d="M70 555v809q0 51 19.5 70.5t70.5 19.5h295q51 0 70.5 -19.5t19.5 -70.5v-838q0 -71 42 -109t124 -38t124 38t42 109v838q0 51 19.5 70.5t70.5 19.5h295q51 0 70.5 -19.5t19.5 -70.5v-809q0 -272 -165.5 -429t-475.5 -157t-475.5 157t-165.5 429zM395.5 1686 q1.5 16 28.5 34l289 164q81 46 135 -8l133 -147q57 -60 -12 -82l-383 -103q-37 -12 -59 -10t-38 22l-71 86q-24 28 -22.5 44z" />
<glyph unicode="&#xdb;" horiz-adv-x="1421" d="M70 555v809q0 51 19.5 70.5t70.5 19.5h295q51 0 70.5 -19.5t19.5 -70.5v-838q0 -71 42 -109t124 -38t124 38t42 109v838q0 51 19.5 70.5t70.5 19.5h295q51 0 70.5 -19.5t19.5 -70.5v-809q0 -272 -165.5 -429t-475.5 -157t-475.5 157t-165.5 429zM263 1580.5 q6 17.5 24 35.5l221 219q41 39 68.5 49t99.5 10h90q63 0 89.5 -10t66.5 -49l223 -219q18 -18 24 -35.5t-7 -30t-46 -12.5h-215q-73 0 -100.5 8t-48.5 37l-41 57l-45 -55q-24 -30 -52 -38.5t-96 -8.5h-203q-33 0 -45.5 12.5t-6.5 30z" />
<glyph unicode="&#xdc;" horiz-adv-x="1421" d="M70 555v809q0 51 19.5 70.5t70.5 19.5h295q51 0 70.5 -19.5t19.5 -70.5v-838q0 -71 42 -109t124 -38t124 38t42 109v838q0 51 19.5 70.5t70.5 19.5h295q51 0 70.5 -19.5t19.5 -70.5v-809q0 -272 -165.5 -429t-475.5 -157t-475.5 157t-165.5 429zM309 1704v31 q0 93 34.5 127t129.5 34h16q96 0 132 -34.5t36 -126.5v-31q0 -90 -36.5 -126t-131.5 -36h-16q-94 0 -129 35.5t-35 126.5zM764 1704v31q0 92 36 126.5t132 34.5h14q95 0 130.5 -34.5t35.5 -126.5v-31q0 -90 -36 -126t-130 -36h-14q-95 0 -131.5 36t-36.5 126z" />
<glyph unicode="&#xdd;" horiz-adv-x="1417" d="M-5 1428q11 26 58 26h297q85 0 116.5 -12.5t59.5 -65.5l185 -362l192 362q28 53 59.5 65.5t114.5 12.5h287q47 0 58 -26t-13 -64l-463 -803v-471q0 -51 -19.5 -70.5t-70.5 -19.5h-295q-51 0 -70.5 19.5t-19.5 70.5v467l-463 807q-24 38 -13 64zM399.5 1686 q1.5 16 28.5 34l289 164q81 46 135 -8l133 -147q57 -60 -12 -82l-383 -103q-37 -12 -58.5 -10.5t-37.5 22.5l-72 86q-24 28 -22.5 44z" />
<glyph unicode="&#xde;" horiz-adv-x="1306" d="M80 90v1274q0 51 19.5 70.5t70.5 19.5h293q51 0 70.5 -19.5t19.5 -70.5v-74h168q258 0 410.5 -149t152.5 -406q0 -255 -152.5 -403t-410.5 -148h-168v-94q0 -51 -19.5 -70.5t-70.5 -19.5h-293q-51 0 -70.5 19.5t-19.5 70.5zM553 596h100q65 0 103.5 39.5t38.5 101.5 q0 61 -38.5 101.5t-103.5 40.5h-100v-283z" />
<glyph unicode="&#xdf;" horiz-adv-x="1253" d="M68 90v987q0 221 133.5 340t400.5 119q285 0 422 -105.5t137 -316.5q0 -111 -35 -180t-118 -125v-10q51 -22 86 -48t66 -68t46 -106t15 -151q0 -217 -127 -321.5t-363 -104.5h-84q-51 0 -69.5 19.5t-18.5 70.5v232q0 51 18.5 70.5t69.5 19.5h15q44 1 60.5 19.5t16.5 62.5 q0 46 -15 64.5t-62 19.5h-15q-51 0 -69.5 19.5t-18.5 70.5v221q0 51 15 70.5t53 19.5h10q55 0 55 76q0 71 -90 71q-48 0 -67 -19.5t-19 -62.5v-954q0 -51 -19.5 -70.5t-70.5 -19.5h-268q-51 0 -70.5 19.5t-19.5 70.5z" />
<glyph unicode="&#xe0;" horiz-adv-x="1091" d="M33 311q0 104 28.5 170.5t94 106t158 54.5t235.5 15h41v60q0 59 -72 59q-14 0 -26 -3.5t-19.5 -6.5t-17.5 -12.5t-13 -12t-13 -16t-11 -14.5q-14 -17 -25.5 -25t-36 -8.5t-59.5 14.5l-180 74q-44 20 -55.5 45t10.5 72q113 213 473 213q137 0 234.5 -32t153 -93.5 t80.5 -141.5t25 -186v-485q0 -59 -16 -83.5t-64 -45.5q-136 -60 -419 -60q-150 0 -248 19.5t-155.5 63t-80 105t-22.5 154.5zM281 1362l139 141q54 54 135 4l283 -174q26 -17 27.5 -33.5t-23.5 -44.5l-76 -84q-16 -19 -37.5 -20t-58.5 12l-379 117q-68 21 -10 82zM465 313 q0 -30 16 -46.5t56 -16.5q31 0 47 2q6 0 6 6v123h-49q-76 0 -76 -68z" />
<glyph unicode="&#xe1;" horiz-adv-x="1091" d="M33 311q0 104 28.5 170.5t94 106t158 54.5t235.5 15h41v60q0 59 -72 59q-14 0 -26 -3.5t-19.5 -6.5t-17.5 -12.5t-13 -12t-13 -16t-11 -14.5q-14 -17 -25.5 -25t-36 -8.5t-59.5 14.5l-180 74q-44 20 -55.5 45t10.5 72q113 213 473 213q137 0 234.5 -32t153 -93.5 t80.5 -141.5t25 -186v-485q0 -59 -16 -83.5t-64 -45.5q-136 -60 -419 -60q-150 0 -248 19.5t-155.5 63t-80 105t-22.5 154.5zM230.5 1299.5q1.5 16.5 27.5 33.5l283 174q81 50 135 -4l139 -141q58 -61 -10 -82l-379 -117q-37 -13 -58.5 -12t-37.5 20l-76 84 q-25 28 -23.5 44.5zM465 313q0 -30 16 -46.5t56 -16.5q31 0 47 2q6 0 6 6v123h-49q-76 0 -76 -68z" />
<glyph unicode="&#xe2;" horiz-adv-x="1091" d="M33 311q0 104 28.5 170.5t94 106t158 54.5t235.5 15h41v60q0 59 -72 59q-14 0 -26 -3.5t-19.5 -6.5t-17.5 -12.5t-13 -12t-13 -16t-11 -14.5q-14 -17 -25.5 -25t-36 -8.5t-59.5 14.5l-180 74q-44 20 -55.5 45t10.5 72q113 213 473 213q137 0 234.5 -32t153 -93.5 t80.5 -141.5t25 -186v-485q0 -59 -16 -83.5t-64 -45.5q-136 -60 -419 -60q-150 0 -248 19.5t-155.5 63t-80 105t-22.5 154.5zM113 1205.5q6 17.5 24 35.5l221 219q41 39 68.5 49.5t99.5 10.5h74q62 0 89 -10.5t67 -49.5l223 -219q18 -18 24 -35.5t-7 -30t-46 -12.5h-215 q-73 0 -100.5 8t-48.5 37l-41 58l-45 -56q-24 -30 -52 -38.5t-96 -8.5h-186q-33 0 -46 12.5t-7 30zM465 313q0 -30 16 -46.5t56 -16.5q31 0 47 2q6 0 6 6v123h-49q-76 0 -76 -68z" />
<glyph unicode="&#xe3;" horiz-adv-x="1091" d="M33 311q0 104 28.5 170.5t94 106t158 54.5t235.5 15h41v60q0 59 -72 59q-14 0 -26 -3.5t-19.5 -6.5t-17.5 -12.5t-13 -12t-13 -16t-11 -14.5q-14 -17 -25.5 -25t-36 -8.5t-59.5 14.5l-180 74q-44 20 -55.5 45t10.5 72q113 213 473 213q137 0 234.5 -32t153 -93.5 t80.5 -141.5t25 -186v-485q0 -59 -16 -83.5t-64 -45.5q-136 -60 -419 -60q-150 0 -248 19.5t-155.5 63t-80 105t-22.5 154.5zM150 1235q0 142 55 202t155 60q57 0 107.5 -11t79.5 -24t58 -24t48 -11q27 0 27 33q0 20 8.5 28.5t28.5 8.5h155q28 0 39 -11.5t11 -37.5 q0 -143 -54 -202.5t-161 -59.5q-57 0 -106.5 11t-77.5 23.5t-56 23.5t-47 11q-27 0 -27 -32q0 -20 -8.5 -28.5t-28.5 -8.5h-157q-27 0 -38 11.5t-11 37.5zM465 313q0 -30 16 -46.5t56 -16.5q31 0 47 2q6 0 6 6v123h-49q-76 0 -76 -68z" />
<glyph unicode="&#xe4;" horiz-adv-x="1091" d="M33 311q0 104 28.5 170.5t94 106t158 54.5t235.5 15h41v60q0 59 -72 59q-14 0 -26 -3.5t-19.5 -6.5t-17.5 -12.5t-13 -12t-13 -16t-11 -14.5q-14 -17 -25.5 -25t-36 -8.5t-59.5 14.5l-180 74q-44 20 -55.5 45t10.5 72q113 213 473 213q137 0 234.5 -32t153 -93.5 t80.5 -141.5t25 -186v-485q0 -59 -16 -83.5t-64 -45.5q-136 -60 -419 -60q-150 0 -248 19.5t-155.5 63t-80 105t-22.5 154.5zM143 1329v31q0 93 34.5 127.5t129.5 34.5h17q95 0 131.5 -35t36.5 -127v-31q0 -90 -36.5 -126t-131.5 -36h-17q-94 0 -129 35.5t-35 126.5z M465 313q0 -30 16 -46.5t56 -16.5q31 0 47 2q6 0 6 6v123h-49q-76 0 -76 -68zM598 1329v31q0 92 36.5 127t131.5 35h14q95 0 130.5 -35t35.5 -127v-31q0 -90 -36 -126t-130 -36h-14q-95 0 -131.5 36t-36.5 126z" />
<glyph unicode="&#xe5;" horiz-adv-x="1091" d="M33 311q0 104 28.5 170.5t94 106t158 54.5t235.5 15h41v60q0 59 -72 59q-14 0 -26 -3.5t-19.5 -6.5t-17.5 -12.5t-13 -12t-13 -16t-11 -14.5q-14 -17 -25.5 -25t-36 -8.5t-59.5 14.5l-180 74q-44 20 -55.5 45t10.5 72q113 213 473 213q137 0 234.5 -32t153 -93.5 t80.5 -141.5t25 -186v-485q0 -59 -16 -83.5t-64 -45.5q-136 -60 -419 -60q-150 0 -248 19.5t-155.5 63t-80 105t-22.5 154.5zM254 1395q0 121 80 185.5t211 64.5q128 0 206 -66.5t78 -183.5t-78 -182.5t-206 -65.5q-131 0 -211 64.5t-80 183.5zM465 313q0 -30 16 -46.5 t56 -16.5q31 0 47 2q6 0 6 6v123h-49q-76 0 -76 -68zM477 1395q0 -27 18 -43.5t50 -16.5q27 0 43 15.5t16 44.5t-16 45t-43 16q-32 0 -50 -16t-18 -45z" />
<glyph unicode="&#xe6;" horiz-adv-x="1566" d="M37 311q0 84 16 142t49 98.5t92 63.5t137 32.5t191 9.5h35v60q0 30 -12 44.5t-49 14.5q-9 0 -17 -2t-14 -4.5t-12 -8t-9.5 -9t-8.5 -12t-6.5 -11t-6.5 -12.5l-6 -12q-9 -16 -18.5 -23t-31.5 -6.5t-55 14.5l-190 76q-44 20 -55.5 45t10.5 72q59 112 162.5 162.5 t279.5 50.5q143 0 252 -70q111 70 252 70q133 0 234 -36.5t160.5 -101.5t88.5 -147t29 -180v-101q0 -54 -27 -82t-90 -28h-463v-43q0 -88 72 -88q33 0 56 12t31 22.5t26 38.5q11 18 21 26.5t33.5 8.5t57.5 -16l174 -84q45 -21 55.5 -45.5t-10.5 -71.5q-59 -111 -165.5 -161 t-284.5 -50q-120 0 -217 51q-64 -27 -128 -39t-163 -12q-120 0 -203.5 13.5t-137 38t-83 68t-40.5 95t-11 127.5zM469 313q0 -34 10 -48.5t41 -14.5l39 4v51v76h-35q-55 0 -55 -68zM956 692h127v19q0 50 -11.5 70t-49.5 20q-37 0 -51.5 -21.5t-14.5 -68.5v-19z" />
<glyph unicode="&#xe7;" horiz-adv-x="1075" d="M43 438v191q0 222 130.5 344.5t395.5 122.5q189 0 308 -81.5t165 -215.5q17 -47 4 -72.5t-59 -40.5l-248 -82q-50 -15 -73.5 -3.5t-42.5 58.5q-17 41 -33 54.5t-43 13.5q-26 0 -40.5 -20.5t-14.5 -53.5v-241q0 -33 15 -52.5t40 -19.5q29 0 44.5 11.5t31.5 51.5 q19 47 43 58t73 -4l256 -76q48 -14 61.5 -41.5t-5.5 -77.5q-99 -235 -365 -282l-24 -68h20q89 -3 133 -61t35 -146q-6 -58 -35.5 -100t-76 -64.5t-98 -32.5t-112.5 -10q-84 0 -159 23q-36 11 -50 26t-14 37v94q0 82 82 37q59 -32 117 -32q59 0 59 41q0 22 -19.5 31t-74.5 9 h-41q-56 0 -27 66l64 143q-214 20 -318 140t-104 325z" />
<glyph unicode="&#xe8;" horiz-adv-x="1136" d="M41 461v145q0 238 137 364t395 126q134 0 237.5 -36.5t167 -101t96 -147.5t32.5 -180v-101q0 -54 -27 -82t-90 -28h-497v-27q0 -104 86 -104q37 0 65 12.5t38.5 23t27.5 31.5q14 18 24 25.5t32 7t56 -15.5l178 -74q44 -20 55.5 -45t-10.5 -72q-113 -213 -473 -213 q-139 0 -243 37t-165.5 105t-91.5 155t-30 195zM309 1362l140 141q54 54 135 4l282 -174q26 -17 27.5 -33.5t-23.5 -44.5l-75 -84q-16 -19 -38 -20t-59 12l-379 117q-68 21 -10 82zM492 692h163v19q0 47 -18 68.5t-64 21.5q-45 0 -63 -21.5t-18 -68.5v-19z" />
<glyph unicode="&#xe9;" horiz-adv-x="1136" d="M41 461v145q0 238 137 364t395 126q134 0 237.5 -36.5t167 -101t96 -147.5t32.5 -180v-101q0 -54 -27 -82t-90 -28h-497v-27q0 -104 86 -104q37 0 65 12.5t38.5 23t27.5 31.5q14 18 24 25.5t32 7t56 -15.5l178 -74q44 -20 55.5 -45t-10.5 -72q-113 -213 -473 -213 q-139 0 -243 37t-165.5 105t-91.5 155t-30 195zM259.5 1299.5q1.5 16.5 27.5 33.5l282 174q82 50 136 -4l139 -141q58 -61 -10 -82l-379 -117q-37 -13 -59 -12t-38 20l-75 84q-25 28 -23.5 44.5zM492 692h163v19q0 47 -18 68.5t-64 21.5q-45 0 -63 -21.5t-18 -68.5v-19z" />
<glyph unicode="&#xea;" horiz-adv-x="1136" d="M41 461v145q0 238 137 364t395 126q134 0 237.5 -36.5t167 -101t96 -147.5t32.5 -180v-101q0 -54 -27 -82t-90 -28h-497v-27q0 -104 86 -104q37 0 65 12.5t38.5 23t27.5 31.5q14 18 24 25.5t32 7t56 -15.5l178 -74q44 -20 55.5 -45t-10.5 -72q-113 -213 -473 -213 q-139 0 -243 37t-165.5 105t-91.5 155t-30 195zM151.5 1202q5.5 17 22.5 35l217 215q39 38 66 47.5t98 9.5h72q61 0 87 -10t66 -47l217 -215q18 -18 24 -35t-6.5 -29t-45.5 -12h-209q-71 0 -99 8t-49 35l-39 58l-45 -56q-23 -29 -50 -37t-93 -8h-182q-32 0 -44.5 12t-7 29z M492 692h163v19q0 47 -18 68.5t-64 21.5q-45 0 -63 -21.5t-18 -68.5v-19z" />
<glyph unicode="&#xeb;" horiz-adv-x="1136" d="M41 461v145q0 238 137 364t395 126q134 0 237.5 -36.5t167 -101t96 -147.5t32.5 -180v-101q0 -54 -27 -82t-90 -28h-497v-27q0 -104 86 -104q37 0 65 12.5t38.5 23t27.5 31.5q14 18 24 25.5t32 7t56 -15.5l178 -74q44 -20 55.5 -45t-10.5 -72q-113 -213 -473 -213 q-139 0 -243 37t-165.5 105t-91.5 155t-30 195zM172 1329v31q0 93 34.5 127.5t129.5 34.5h16q95 0 131.5 -35t36.5 -127v-31q0 -90 -36.5 -126t-131.5 -36h-16q-94 0 -129 35.5t-35 126.5zM492 692h163v19q0 47 -18 68.5t-64 21.5q-45 0 -63 -21.5t-18 -68.5v-19zM627 1329 v31q0 92 36.5 127t131.5 35h14q95 0 130.5 -35t35.5 -127v-31q0 -90 -36 -126t-130 -36h-14q-95 0 -131.5 36t-36.5 126z" />
<glyph unicode="&#xec;" horiz-adv-x="585" d="M0 1339q0 18 31 47l151 130q58 48 135 -9l267 -198q25 -19 24.5 -35.5t-26.5 -42.5l-84 -76q-20 -18 -39.5 -18t-57.5 18l-366 150q-35 16 -35 34zM68 82v901q0 46 18 64t64 18h286q46 0 64 -18t18 -64v-901q0 -46 -18 -64t-64 -18h-286q-46 0 -64 18t-18 64z" />
<glyph unicode="&#xed;" horiz-adv-x="585" d="M-32.5 1273.5q-0.5 16.5 24.5 35.5l266 198q77 57 135 9l152 -130q31 -29 31 -47t-35 -34l-367 -150q-38 -18 -57 -18t-39 18l-84 76q-26 26 -26.5 42.5zM68 82v901q0 46 18 64t64 18h286q46 0 64 -18t18 -64v-901q0 -46 -18 -64t-64 -18h-286q-46 0 -64 18t-18 64z" />
<glyph unicode="&#xee;" horiz-adv-x="585" d="M-131.5 1202q5.5 17 22.5 35l218 215q39 38 66 47.5t97 9.5h72q61 0 87.5 -10t66.5 -47l217 -215q18 -18 24 -35t-7 -29t-46 -12h-209q-71 0 -98 8t-49 35l-41 58l-43 -56q-23 -29 -50.5 -37t-93.5 -8h-182q-32 0 -44.5 12t-7 29zM68 82v901q0 46 18 64t64 18h286 q46 0 64 -18t18 -64v-901q0 -46 -18 -64t-64 -18h-286q-46 0 -64 18t-18 64z" />
<glyph unicode="&#xef;" horiz-adv-x="585" d="M-109 1329v31q0 93 34.5 127.5t129.5 34.5h17q95 0 131.5 -35t36.5 -127v-31q0 -90 -36.5 -126t-131.5 -36h-17q-94 0 -129 35.5t-35 126.5zM68 82v901q0 46 18 64t64 18h286q46 0 64 -18t18 -64v-901q0 -46 -18 -64t-64 -18h-286q-46 0 -64 18t-18 64zM346 1329v31 q0 92 36.5 127t131.5 35h14q95 0 130.5 -35t35.5 -127v-31q0 -90 -36 -126t-130 -36h-14q-95 0 -131.5 36t-36.5 126z" />
<glyph unicode="&#xf0;" horiz-adv-x="1150" d="M41 412v176q0 197 128 301t349 104q122 0 207 -30q-18 94 -72 145l-71 -76q-12 -11 -21.5 -13t-15 0t-21.5 11l-65 39q-33 18 -2 57l39 45q-68 5 -234 5q-51 0 -70.5 19.5t-19.5 70.5v168q0 51 19.5 70.5t70.5 19.5q177 0 294 -10t206 -37l76 88q17 19 28.5 19t26.5 -17 l76 -60q32 -23 2 -57l-58 -61q95 -87 139 -237t44 -378v-340q0 -219 -136 -342t-391 -123q-260 0 -394 113t-134 330zM489 416q0 -66 80 -66q78 0 78 66v172q0 67 -78 67q-80 0 -80 -67v-172z" />
<glyph unicode="&#xf1;" d="M63 82v807q0 54 17.5 79.5t71.5 47.5q199 80 452 80q241 0 360 -118.5t119 -340.5v-555q0 -46 -18 -64t-64 -18h-286q-46 0 -64 18t-18 64v534q0 42 -17 59t-57 17q-27 0 -39 -2q-6 -2 -6 -8v-600q0 -46 -18 -64t-64 -18h-287q-46 0 -64 18t-18 64zM170 1235 q0 142 55.5 202t155.5 60q57 0 107.5 -11t79.5 -24t58 -24t48 -11q26 0 26 33q0 20 8.5 28.5t28.5 8.5h156q28 0 38.5 -11.5t10.5 -37.5q0 -143 -54 -202.5t-161 -59.5q-57 0 -106.5 11t-77.5 23.5t-56 23.5t-47 11q-26 0 -26 -32q0 -20 -8.5 -28.5t-28.5 -8.5h-158 q-27 0 -38 11.5t-11 37.5z" />
<glyph unicode="&#xf2;" d="M43 434v197q0 220 135.5 342.5t390.5 122.5q258 0 393.5 -122.5t135.5 -342.5v-197q0 -220 -135.5 -342.5t-393.5 -122.5q-255 0 -390.5 122.5t-135.5 342.5zM305 1362l139 141q54 54 136 4l282 -174q26 -17 27.5 -33.5t-23.5 -44.5l-75 -84q-16 -19 -38 -20t-59 12 l-379 117q-68 21 -10 82zM492 416q0 -66 77 -66q80 0 80 66v233q0 68 -80 68q-77 0 -77 -68v-233z" />
<glyph unicode="&#xf3;" d="M43 434v197q0 220 135.5 342.5t390.5 122.5q258 0 393.5 -122.5t135.5 -342.5v-197q0 -220 -135.5 -342.5t-393.5 -122.5q-255 0 -390.5 122.5t-135.5 342.5zM255.5 1299.5q1.5 16.5 27.5 33.5l282 174q81 50 135 -4l140 -141q29 -29 27.5 -49.5t-38.5 -32.5l-378 -117 q-37 -13 -59 -12t-38 20l-75 84q-25 28 -23.5 44.5zM492 416q0 -66 77 -66q80 0 80 66v233q0 68 -80 68q-77 0 -77 -68v-233z" />
<glyph unicode="&#xf4;" d="M43 434v197q0 220 135.5 342.5t390.5 122.5q258 0 393.5 -122.5t135.5 -342.5v-197q0 -220 -135.5 -342.5t-393.5 -122.5q-255 0 -390.5 122.5t-135.5 342.5zM147.5 1202q5.5 17 22.5 35l217 215q39 38 66 47.5t98 9.5h72q61 0 87 -10t66 -47l217 -215q18 -18 24 -35 t-6.5 -29t-45.5 -12h-209q-71 0 -99 8t-49 35l-39 58l-45 -56q-23 -29 -50 -37t-93 -8h-182q-32 0 -44.5 12t-7 29zM492 416q0 -66 77 -66q80 0 80 66v233q0 68 -80 68q-77 0 -77 -68v-233z" />
<glyph unicode="&#xf5;" d="M43 434v197q0 220 135.5 342.5t390.5 122.5q258 0 393.5 -122.5t135.5 -342.5v-197q0 -220 -135.5 -342.5t-393.5 -122.5q-255 0 -390.5 122.5t-135.5 342.5zM174 1235q0 142 55.5 202t155.5 60q57 0 107.5 -11t79.5 -24t58 -24t48 -11q27 0 27 33q0 20 8 28.5t28 8.5 h156q28 0 38.5 -11.5t10.5 -37.5q0 -143 -54 -202.5t-161 -59.5q-57 0 -106.5 11t-77.5 23.5t-56 23.5t-47 11q-26 0 -26 -32q0 -20 -8.5 -28.5t-28.5 -8.5h-158q-27 0 -38 11.5t-11 37.5zM492 416q0 -66 77 -66q80 0 80 66v233q0 68 -80 68q-77 0 -77 -68v-233z" />
<glyph unicode="&#xf6;" d="M43 434v197q0 220 135.5 342.5t390.5 122.5q258 0 393.5 -122.5t135.5 -342.5v-197q0 -220 -135.5 -342.5t-393.5 -122.5q-255 0 -390.5 122.5t-135.5 342.5zM168 1329v31q0 93 34.5 127.5t129.5 34.5h16q95 0 131.5 -35t36.5 -127v-31q0 -90 -36.5 -126t-131.5 -36h-16 q-94 0 -129 35.5t-35 126.5zM492 416q0 -66 77 -66q80 0 80 66v233q0 68 -80 68q-77 0 -77 -68v-233zM623 1329v31q0 92 36.5 127t131.5 35h14q95 0 130.5 -35t35.5 -127v-31q0 -90 -36 -126t-130 -36h-14q-95 0 -131.5 36t-36.5 126z" />
<glyph unicode="&#xf7;" horiz-adv-x="1155" d="M45 557v221q0 51 19.5 70.5t70.5 19.5h885q51 0 70.5 -19.5t19.5 -70.5v-221q0 -51 -19.5 -70.5t-70.5 -19.5h-885q-51 0 -70.5 19.5t-19.5 70.5zM340 225v23q0 90 34 124t124 34h159q90 0 124 -34t34 -124v-23q0 -89 -33.5 -123t-124.5 -34h-159q-90 0 -124 34t-34 123z M340 1087v23q0 90 34 124t124 34h159q90 0 124 -34t34 -124v-23q0 -89 -33.5 -123t-124.5 -34h-159q-90 0 -124 34t-34 123z" />
<glyph unicode="&#xf8;" d="M43 434v197q0 220 135.5 342.5t390.5 122.5q135 0 230 -33l22 35q13 21 28.5 26.5t49.5 5.5h125q48 0 20 -45l-75 -118q129 -120 129 -336v-197q0 -220 -135.5 -342.5t-393.5 -122.5q-110 0 -213 27l-22 -35q-13 -21 -28.5 -27t-49.5 -6h-125q-48 0 -20 45l73 115 q-141 120 -141 346zM492 530l149 238q-19 31 -72 31q-77 0 -77 -68v-172v-29zM504 293q19 -25 65 -25q80 0 80 66v164v26z" />
<glyph unicode="&#xf9;" d="M57 428v555q0 46 18 64t64 18h287q46 0 64 -18t18 -64v-534q0 -42 17 -59t57 -17q16 0 32 2q13 3 13 16v592q0 46 18 64t64 18h286q46 0 64 -18t18 -64v-807q0 -55 -17.5 -80t-70.5 -47q-199 -80 -452 -80q-241 0 -360.5 119t-119.5 340zM303 1362l139 141q54 54 136 4 l282 -174q26 -17 27.5 -33.5t-23.5 -44.5l-76 -84q-16 -19 -37.5 -20t-58.5 12l-379 117q-68 21 -10 82z" />
<glyph unicode="&#xfa;" d="M57 428v555q0 46 18 64t64 18h287q46 0 64 -18t18 -64v-534q0 -42 17 -59t57 -17q16 0 32 2q13 3 13 16v592q0 46 18 64t64 18h286q46 0 64 -18t18 -64v-807q0 -55 -17.5 -80t-70.5 -47q-199 -80 -452 -80q-241 0 -360.5 119t-119.5 340zM253 1299q1 16 28 34l282 174 q81 50 135 -4l140 -141q29 -29 27.5 -49.5t-38.5 -32.5l-378 -117q-37 -13 -59 -12t-38 20l-76 84q-24 28 -23 44z" />
<glyph unicode="&#xfb;" d="M57 428v555q0 46 18 64t64 18h287q46 0 64 -18t18 -64v-534q0 -42 17 -59t57 -17q16 0 32 2q13 3 13 16v592q0 46 18 64t64 18h286q46 0 64 -18t18 -64v-807q0 -55 -17.5 -80t-70.5 -47q-199 -80 -452 -80q-241 0 -360.5 119t-119.5 340zM136 1205.5q6 17.5 24 35.5 l221 219q41 39 68.5 49.5t99.5 10.5h74q62 0 88 -10.5t67 -49.5l223 -219q18 -18 24 -35.5t-6.5 -30t-45.5 -12.5h-215q-73 0 -101 8t-49 37l-41 58l-45 -56q-24 -30 -51.5 -38.5t-95.5 -8.5h-187q-33 0 -45.5 12.5t-6.5 30z" />
<glyph unicode="&#xfc;" d="M57 428v555q0 46 18 64t64 18h287q46 0 64 -18t18 -64v-534q0 -42 17 -59t57 -17q16 0 32 2q13 3 13 16v592q0 46 18 64t64 18h286q46 0 64 -18t18 -64v-807q0 -55 -17.5 -80t-70.5 -47q-199 -80 -452 -80q-241 0 -360.5 119t-119.5 340zM166 1329v31q0 93 34.5 127.5 t129.5 34.5h16q95 0 131.5 -35t36.5 -127v-31q0 -90 -36.5 -126t-131.5 -36h-16q-94 0 -129 35.5t-35 126.5zM621 1329v31q0 92 36 127t131 35h15q95 0 130.5 -35t35.5 -127v-31q0 -90 -36 -126t-130 -36h-15q-94 0 -130.5 36t-36.5 126z" />
<glyph unicode="&#xfd;" horiz-adv-x="1144" d="M57 489v494q0 46 18 64t64 18h287q46 0 64 -18t18 -64v-473q0 -42 17 -59t57 -17q31 0 45 2v547q0 46 18 64t64 18h286q46 0 64 -18t18 -64v-963q0 -108 -28.5 -195t-88 -154.5t-161 -104.5t-238.5 -37q-177 0 -289.5 51t-183.5 162q-25 44 -13 69.5t58 47.5l225 108 q23 11 39.5 14t29.5 -3t20.5 -13t19.5 -22q14 -20 22.5 -30.5t27.5 -21t42 -10.5q38 0 53 20t15 58v74q-29 -2 -90 -2q-241 0 -360.5 118.5t-119.5 339.5zM253 1299q1 16 28 34l282 174q81 50 135 -4l140 -141q29 -29 27.5 -49.5t-38.5 -32.5l-378 -117q-37 -13 -59 -12 t-38 20l-76 84q-24 28 -23 44z" />
<glyph unicode="&#xfe;" horiz-adv-x="1132" d="M70 -367v1801q0 46 18 64t64 18h288q46 0 64 -18t18 -64v-340q25 2 74 2q249 0 371.5 -118.5t122.5 -340.5v-188q0 -234 -123 -357t-359 -123q-16 0 -45 1t-43 1v-338q0 -46 -18 -64t-64 -18h-286q-46 0 -64 18t-18 64zM520 356q24 -6 49 -6q70 0 70 62v245 q0 26 -16.5 41t-47.5 15q-35 0 -55 -8v-349z" />
<glyph unicode="&#xff;" horiz-adv-x="1144" d="M57 489v494q0 46 18 64t64 18h287q46 0 64 -18t18 -64v-473q0 -42 17 -59t57 -17q31 0 45 2v547q0 46 18 64t64 18h286q46 0 64 -18t18 -64v-963q0 -108 -28.5 -195t-88 -154.5t-161 -104.5t-238.5 -37q-177 0 -289.5 51t-183.5 162q-25 44 -13 69.5t58 47.5l225 108 q23 11 39.5 14t29.5 -3t20.5 -13t19.5 -22q14 -20 22.5 -30.5t27.5 -21t42 -10.5q38 0 53 20t15 58v74q-29 -2 -90 -2q-241 0 -360.5 118.5t-119.5 339.5zM166 1329v31q0 93 34.5 127.5t129.5 34.5h16q95 0 131.5 -35t36.5 -127v-31q0 -90 -36.5 -126t-131.5 -36h-16 q-94 0 -129 35.5t-35 126.5zM621 1329v31q0 92 36 127t131 35h15q95 0 130.5 -35t35.5 -127v-31q0 -90 -36 -126t-130 -36h-15q-94 0 -130.5 36t-36.5 126z" />
<glyph unicode="&#x152;" horiz-adv-x="1837" d="M51 563v328q0 278 171 436t483 158q128 0 243 -31h742q51 0 70.5 -19.5t19.5 -70.5v-229q0 -51 -19.5 -71t-70.5 -20h-406v-106h291q51 0 70.5 -19.5t19.5 -70.5v-230q0 -51 -19.5 -70.5t-70.5 -19.5h-291v-116h420q51 0 70.5 -19.5t19.5 -70.5v-232q0 -51 -19.5 -70.5 t-70.5 -19.5h-731q-96 -31 -268 -31q-312 0 -483 158t-171 436zM526 537q0 -76 47 -116t132 -40q58 0 104 22v648q-46 22 -104 22q-86 0 -132.5 -39.5t-46.5 -115.5v-381z" />
<glyph unicode="&#x153;" horiz-adv-x="1603" d="M43 434v197q0 221 125 343t371 122q141 0 260 -78q119 78 260 78q133 0 234 -36.5t160.5 -101.5t88.5 -147t29 -180v-101q0 -54 -27 -82t-90 -28h-463v-27q0 -58 17.5 -81t54.5 -23q28 0 49.5 11t31 22t21.5 30q11 18 18 26t21 15.5t34 4t50 -16.5l174 -84 q45 -21 55.5 -45.5t-10.5 -71.5q-59 -111 -165.5 -161t-284.5 -50q-136 0 -260 82q-116 -82 -258 -82q-246 0 -371 122t-125 343zM492 408q0 -58 47 -58q27 0 40 13.5t13 44.5v249q0 32 -12 46t-41 14q-47 0 -47 -60v-249zM993 692h127v19q0 50 -11.5 70t-49.5 20 q-37 0 -51.5 -21.5t-14.5 -68.5v-19z" />
<glyph unicode="&#x178;" horiz-adv-x="1417" d="M-5 1428q11 26 58 26h297q85 0 116.5 -12.5t59.5 -65.5l185 -362l192 362q28 53 59.5 65.5t114.5 12.5h287q47 0 58 -26t-13 -64l-463 -803v-471q0 -51 -19.5 -70.5t-70.5 -19.5h-295q-51 0 -70.5 19.5t-19.5 70.5v467l-463 807q-24 38 -13 64zM313 1704v31 q0 93 34.5 127t129.5 34h17q96 0 132 -34.5t36 -126.5v-31q0 -90 -36.5 -126t-131.5 -36h-17q-94 0 -129 35.5t-35 126.5zM768 1704v31q0 92 36 126.5t132 34.5h14q95 0 130.5 -34.5t35.5 -126.5v-31q0 -90 -36 -126t-130 -36h-14q-95 0 -131.5 36t-36.5 126z" />
<glyph unicode="&#x2c6;" horiz-adv-x="821" d="M-40 1203.5q6 17.5 24 35.5l221 219q41 39 68.5 49.5t99.5 10.5h73q62 0 89 -10.5t67 -49.5l223 -219q18 -18 24 -35.5t-6.5 -30t-45.5 -12.5h-215q-73 0 -101 8t-49 37l-41 58l-45 -56q-24 -30 -51.5 -38.5t-95.5 -8.5h-187q-33 0 -45.5 12.5t-6.5 30z" />
<glyph unicode="&#x2dc;" horiz-adv-x="624" d="M-78 1235q0 142 55.5 202t155.5 60q57 0 107.5 -11t79.5 -24t58 -24t48 -11q27 0 27 33q0 20 8 28.5t28 8.5h156q28 0 38.5 -11.5t10.5 -37.5q0 -143 -54 -202.5t-161 -59.5q-57 0 -106.5 11t-77 23.5t-55.5 23.5t-47 11q-27 0 -27 -32q0 -20 -8.5 -28.5t-28.5 -8.5h-158 q-27 0 -38 11.5t-11 37.5z" />
<glyph unicode="&#x2000;" horiz-adv-x="967" />
<glyph unicode="&#x2001;" horiz-adv-x="1935" />
<glyph unicode="&#x2002;" horiz-adv-x="967" />
<glyph unicode="&#x2003;" horiz-adv-x="1935" />
<glyph unicode="&#x2004;" horiz-adv-x="645" />
<glyph unicode="&#x2005;" horiz-adv-x="483" />
<glyph unicode="&#x2006;" horiz-adv-x="322" />
<glyph unicode="&#x2007;" horiz-adv-x="322" />
<glyph unicode="&#x2008;" horiz-adv-x="241" />
<glyph unicode="&#x2009;" horiz-adv-x="387" />
<glyph unicode="&#x200a;" horiz-adv-x="107" />
<glyph unicode="&#x2010;" horiz-adv-x="815" d="M72 432v219q0 51 19.5 70.5t70.5 19.5h491q51 0 70.5 -19.5t19.5 -70.5v-219q0 -51 -19.5 -70.5t-70.5 -19.5h-491q-51 0 -70.5 19.5t-19.5 70.5z" />
<glyph unicode="&#x2011;" horiz-adv-x="815" d="M72 432v219q0 51 19.5 70.5t70.5 19.5h491q51 0 70.5 -19.5t19.5 -70.5v-219q0 -51 -19.5 -70.5t-70.5 -19.5h-491q-51 0 -70.5 19.5t-19.5 70.5z" />
<glyph unicode="&#x2012;" horiz-adv-x="815" d="M72 432v219q0 51 19.5 70.5t70.5 19.5h491q51 0 70.5 -19.5t19.5 -70.5v-219q0 -51 -19.5 -70.5t-70.5 -19.5h-491q-51 0 -70.5 19.5t-19.5 70.5z" />
<glyph unicode="&#x2013;" horiz-adv-x="1167" d="M74 436v219q0 51 19.5 70.5t70.5 19.5h840q51 0 70.5 -19.5t19.5 -70.5v-219q0 -51 -19.5 -70.5t-70.5 -19.5h-840q-51 0 -70.5 19.5t-19.5 70.5z" />
<glyph unicode="&#x2014;" horiz-adv-x="1617" d="M74 434v223q0 51 19.5 71t70.5 20h1290q51 0 70.5 -20t19.5 -71v-223q0 -51 -19.5 -70.5t-70.5 -19.5h-1290q-51 0 -70.5 19.5t-19.5 70.5z" />
<glyph unicode="&#x2018;" horiz-adv-x="573" d="M31 877l168 497q15 44 41 62t77 18h156q40 0 53 -12.5t9 -48.5l-64 -516q-8 -62 -32.5 -88.5t-80.5 -26.5h-243q-125 0 -84 115z" />
<glyph unicode="&#x2019;" horiz-adv-x="569" d="M49 825l64 516q8 62 32.5 88.5t79.5 26.5h244q125 0 84 -115l-168 -497q-15 -44 -41.5 -62t-77.5 -18h-155q-40 0 -53 12.5t-9 48.5z" />
<glyph unicode="&#x201a;" horiz-adv-x="483" d="M51 145q0 45 17.5 62.5t62.5 17.5h225q45 0 64.5 -18.5t15.5 -61.5l-45 -381q-5 -45 -24 -62t-64 -17h-172q-45 0 -62.5 17.5t-17.5 61.5v381z" />
<glyph unicode="&#x201c;" horiz-adv-x="1056" d="M31 877l168 497q15 44 41 62t77 18h156q40 0 53 -12.5t9 -48.5l-64 -516q-8 -62 -32.5 -88.5t-80.5 -26.5h-243q-125 0 -84 115zM514 877l168 497q15 44 41.5 62t77.5 18h155q40 0 53 -12.5t9 -48.5l-64 -516q-8 -62 -32.5 -88.5t-79.5 -26.5h-244q-125 0 -84 115z" />
<glyph unicode="&#x201d;" horiz-adv-x="1052" d="M49 823l64 516q8 62 32.5 88.5t79.5 26.5h244q125 0 84 -115l-168 -497q-15 -44 -41.5 -62t-77.5 -18h-155q-40 0 -53 12.5t-9 48.5zM532 823l64 516q8 62 32.5 88.5t80.5 26.5h243q125 0 84 -115l-168 -497q-15 -44 -41 -62t-77 -18h-156q-40 0 -53 12.5t-9 48.5z" />
<glyph unicode="&#x201e;" horiz-adv-x="1050" d="M16 -188l64 516q8 62 32.5 88t80.5 26h243q125 0 84 -114l-168 -498q-15 -44 -41.5 -62t-77.5 -18h-155q-40 0 -53 13t-9 49zM500 -188l63 516q8 62 32.5 88t80.5 26h244q125 0 84 -114l-168 -498q-15 -44 -41.5 -62t-77.5 -18h-156q-40 0 -52.5 12.5t-8.5 49.5z" />
<glyph unicode="&#x2022;" horiz-adv-x="817" d="M84 541q0 140 92.5 233.5t233.5 93.5q139 0 231 -93.5t92 -233.5q0 -139 -92.5 -234.5t-230.5 -95.5q-140 0 -233 95.5t-93 234.5z" />
<glyph unicode="&#x2026;" horiz-adv-x="1712" d="M55 150v124q0 95 36.5 131.5t131.5 36.5h119q95 0 131.5 -36.5t36.5 -131.5v-124q0 -94 -36.5 -130t-131.5 -36h-119q-95 0 -131.5 36t-36.5 130zM629 150v124q0 95 36.5 131.5t131.5 36.5h118q95 0 131.5 -36.5t36.5 -131.5v-124q0 -94 -36.5 -130t-131.5 -36h-118 q-95 0 -131.5 36t-36.5 130zM1202 150v124q0 95 36.5 131.5t131.5 36.5h119q95 0 131.5 -36.5t36.5 -131.5v-124q0 -94 -36.5 -130t-131.5 -36h-119q-95 0 -131.5 36t-36.5 130z" />
<glyph unicode="&#x202f;" horiz-adv-x="387" />
<glyph unicode="&#x2039;" horiz-adv-x="792" d="M26.5 535.5q0.5 22.5 28.5 52.5l420 422q27 28 51 28.5t52 -28.5l131 -133q28 -29 28 -51t-28 -50l-234 -233l227 -226q28 -26 28 -49t-28 -51l-137 -139q-29 -28 -51 -27.5t-49 27.5l-410 407q-29 28 -28.5 50.5z" />
<glyph unicode="&#x203a;" horiz-adv-x="792" d="M56 826q0 22 28 51l131 133q28 29 51.5 28.5t50.5 -28.5l420 -422q28 -30 28.5 -52.5t-28.5 -50.5l-409 -407q-27 -27 -49.5 -27.5t-51.5 27.5l-137 139q-28 28 -28 51t28 49l227 226l-233 233q-28 28 -28 50z" />
<glyph unicode="&#x205f;" horiz-adv-x="483" />
<glyph unicode="&#x20ac;" horiz-adv-x="1601" d="M39 508l35 117q10 35 27.5 47t56.5 12h139v68h-121q-37 0 -47.5 13.5t-1.5 47.5l35 119q10 35 28.5 47t57.5 12h55v13q10 224 186.5 352.5t460.5 128.5q428 0 580 -291q43 -79 -57 -115l-256 -90q-23 -11 -44 -7.5t-30.5 9t-26.5 19.5q-22 19 -37.5 29.5t-53.5 22 t-87 11.5q-70 0 -112 -20t-42 -56v-6h248q36 0 46.5 -14t0.5 -49l-32 -117q-10 -34 -29 -46.5t-57 -12.5h-189v-68h172q36 0 46.5 -14t0.5 -49l-35 -117q-9 -33 -28 -46.5t-58 -13.5h-77v-16q2 -12 8.5 -21.5t14.5 -15.5t19.5 -10t21 -6t22 -3t19.5 -1h17h11q47 0 94 25.5 t72 54.5q10 12 17.5 18.5t19.5 11t28.5 2.5t38.5 -10l277 -98q49 -18 63 -44.5t-6 -72.5q-64 -143 -218.5 -216t-361.5 -73q-272 0 -437 114.5t-206 338.5l-2 22h-217q-37 0 -47.5 14.5t-1.5 49.5z" />
<glyph unicode="&#x2122;" horiz-adv-x="1298" d="M45 1284v80q0 32 14.5 45.5t53.5 13.5h374q58 0 74.5 -14t16.5 -66v-38q0 -54 -16 -67t-75 -13h-57v-250q0 -39 -16 -53.5t-62 -14.5h-82q-46 0 -60.5 13.5t-14.5 54.5v250h-82q-39 0 -53.5 13t-14.5 46zM596 975v368q0 53 14 66.5t66 13.5h47q38 0 55.5 -9t38.5 -36 l92 -161l86 159q35 47 95 47h51q51 0 64.5 -14t13.5 -66v-368q0 -40 -14 -54t-58 -14h-49q-44 0 -58 14t-14 54v53v62q-4 -7 -9 -16.5t-9 -16.5l-9 -15q-13 -21 -28.5 -26.5t-55.5 -5.5h-18q-36 0 -52 5t-30 27l-8 13l-19 28v-55v-53q0 -40 -12.5 -54t-56.5 -14h-49 q-46 0 -60 13.5t-14 54.5z" />
<glyph unicode="&#x25fc;" horiz-adv-x="1064" d="M0 0v1065h1065v-1065h-1065z" />
</font>
</defs>
</svg>
